<svg width="68" height="24" viewBox="0 0 68 24" fill="none" xmlns="http://www.w3.org/2000/svg">
<path d="M19.4309 1.232C19.5029 1.232 19.5609 1.248 19.6049 1.28C19.6489 1.308 19.6829 1.344 19.7069 1.388C19.7269 1.436 19.7389 1.49 19.7429 1.55C19.7509 1.606 19.7549 1.662 19.7549 1.718C19.7549 1.762 19.7549 1.822 19.7549 1.898C19.7549 1.974 19.7549 2.054 19.7549 2.138C19.7509 2.226 19.7469 2.312 19.7429 2.396C19.7429 2.48 19.7409 2.55 19.7369 2.606C19.7369 2.63 19.7349 2.658 19.7309 2.69C19.7269 2.722 19.7249 2.752 19.7249 2.78C19.7209 2.844 19.7169 2.914 19.7129 2.99C19.7089 3.066 19.7029 3.14 19.6949 3.212C19.6869 3.284 19.6769 3.352 19.6649 3.416C19.6569 3.476 19.6469 3.526 19.6349 3.566C19.6149 3.606 19.6129 3.654 19.6289 3.71C19.6449 3.766 19.6609 3.822 19.6769 3.878C19.6889 3.922 19.6989 3.966 19.7069 4.01C19.7189 4.054 19.7249 4.092 19.7249 4.124C19.7249 4.144 19.7229 4.168 19.7189 4.196C19.7189 4.22 19.7189 4.248 19.7189 4.28C19.7189 4.312 19.7169 4.346 19.7129 4.382C19.7129 4.418 19.7129 4.458 19.7129 4.502C19.7129 4.562 19.7129 4.622 19.7129 4.682C19.7169 4.742 19.7209 4.806 19.7249 4.874C19.7249 4.966 19.7089 5.042 19.6769 5.102C19.6489 5.166 19.6129 5.218 19.5689 5.258C19.5249 5.298 19.4789 5.326 19.4309 5.342C19.3829 5.362 19.3409 5.372 19.3049 5.372C19.2649 5.372 19.2249 5.356 19.1849 5.324C19.1489 5.296 19.1169 5.26 19.0889 5.216C19.0569 5.172 19.0309 5.124 19.0109 5.072C18.9909 5.02 18.9789 4.97 18.9749 4.922C18.9709 4.878 18.9709 4.824 18.9749 4.76C18.9829 4.692 18.9909 4.624 18.9989 4.556C19.0069 4.484 19.0149 4.41 19.0229 4.334C19.0309 4.258 19.0349 4.188 19.0349 4.124C19.0349 4.052 19.0349 3.974 19.0349 3.89C19.0349 3.802 19.0329 3.714 19.0289 3.626C19.0249 3.542 19.0209 3.462 19.0169 3.386C19.0129 3.306 19.0089 3.242 19.0049 3.194C18.9969 3.162 18.9929 3.128 18.9929 3.092C18.9929 3.052 18.9929 3.012 18.9929 2.972C18.9929 2.928 18.9929 2.89 18.9929 2.858C18.9929 2.822 18.9949 2.786 18.9989 2.75C19.0029 2.71 19.0049 2.676 19.0049 2.648C19.0049 2.62 19.0049 2.594 19.0049 2.57V2.42L18.9929 2.438C18.9609 2.494 18.9249 2.552 18.8849 2.612C18.8489 2.672 18.8089 2.724 18.7649 2.768C18.7329 2.804 18.6909 2.862 18.6389 2.942C18.5909 3.018 18.5389 3.096 18.4829 3.176L18.3449 3.392C18.2969 3.452 18.2609 3.504 18.2369 3.548C18.2129 3.588 18.1909 3.624 18.1709 3.656C18.1189 3.756 18.0709 3.83 18.0269 3.878C18.0069 3.906 17.9869 3.932 17.9669 3.956C17.9509 3.98 17.9329 4 17.9129 4.016C17.8329 4.072 17.7649 4.096 17.7089 4.088C17.6529 4.08 17.6009 4.056 17.5529 4.016L17.5829 4.028C17.5509 4.016 17.5209 3.994 17.4929 3.962C17.4649 3.926 17.4449 3.898 17.4329 3.878C17.4009 3.85 17.3729 3.814 17.3489 3.77C17.3249 3.726 17.3009 3.678 17.2769 3.626C17.2489 3.578 17.2209 3.528 17.1929 3.476C17.1689 3.424 17.1449 3.382 17.1209 3.35C17.0849 3.302 17.0449 3.25 17.0009 3.194C16.9609 3.138 16.9209 3.082 16.8809 3.026C16.8369 2.974 16.7949 2.926 16.7549 2.882C16.7189 2.834 16.6869 2.796 16.6589 2.768C16.6309 2.74 16.6029 2.708 16.5749 2.672C16.5509 2.632 16.5269 2.59 16.5029 2.546V2.594C16.5069 2.65 16.5049 2.72 16.4969 2.804C16.4889 2.888 16.4789 2.974 16.4669 3.062C16.4549 3.154 16.4409 3.24 16.4249 3.32C16.4129 3.4 16.3989 3.462 16.3829 3.506C16.3629 3.55 16.3609 3.6 16.3769 3.656C16.3929 3.708 16.4089 3.762 16.4249 3.818C16.4369 3.862 16.4469 3.906 16.4549 3.95C16.4669 3.994 16.4729 4.032 16.4729 4.064V4.232C16.4689 4.284 16.4669 4.34 16.4669 4.4C16.4669 4.456 16.4669 4.518 16.4669 4.586C16.4669 4.63 16.4669 4.678 16.4669 4.73C16.4669 4.778 16.4689 4.826 16.4729 4.874C16.4769 4.974 16.4629 5.056 16.4309 5.12C16.4029 5.184 16.3669 5.236 16.3229 5.276C16.2789 5.312 16.2309 5.336 16.1789 5.348C16.1269 5.364 16.0809 5.372 16.0409 5.372C15.9969 5.372 15.9569 5.356 15.9209 5.324C15.8849 5.296 15.8549 5.26 15.8309 5.216C15.8029 5.172 15.7789 5.124 15.7589 5.072C15.7389 5.02 15.7269 4.97 15.7229 4.922C15.7189 4.878 15.7189 4.822 15.7229 4.754C15.7309 4.682 15.7389 4.606 15.7469 4.526C15.7549 4.446 15.7629 4.366 15.7709 4.286C15.7789 4.206 15.7829 4.132 15.7829 4.064C15.7829 3.992 15.7809 3.914 15.7769 3.83C15.7729 3.742 15.7689 3.654 15.7649 3.566C15.7569 3.482 15.7489 3.402 15.7409 3.326C15.7329 3.25 15.7269 3.186 15.7229 3.134C15.7149 3.066 15.7129 2.994 15.7169 2.918C15.7209 2.842 15.7269 2.77 15.7349 2.702C15.7469 2.626 15.7529 2.564 15.7529 2.516L15.7349 2.144C15.7309 2.072 15.7289 2.002 15.7289 1.934C15.7289 1.866 15.7269 1.816 15.7229 1.784C15.7189 1.708 15.7209 1.622 15.7289 1.526C15.7409 1.426 15.7709 1.352 15.8189 1.304C15.8629 1.26 15.9069 1.236 15.9509 1.232C15.9949 1.224 16.0489 1.222 16.1129 1.226C16.1289 1.226 16.1449 1.228 16.1609 1.232C16.1769 1.232 16.1949 1.232 16.2149 1.232C16.2789 1.232 16.3289 1.234 16.3649 1.238C16.4049 1.238 16.4409 1.244 16.4729 1.256C16.5009 1.272 16.5289 1.296 16.5569 1.328C16.5889 1.356 16.6289 1.396 16.6769 1.448L16.8209 1.682L17.0009 1.97C17.0329 2.026 17.0649 2.088 17.0969 2.156C17.1329 2.22 17.1629 2.28 17.1869 2.336C17.2429 2.46 17.3029 2.58 17.3669 2.696C17.4309 2.808 17.5229 2.916 17.6429 3.02L17.7149 3.128L17.7929 3.02L17.7869 3.026C17.7989 3.006 17.8149 2.986 17.8349 2.966C17.8589 2.942 17.8829 2.918 17.9069 2.894C17.9429 2.858 17.9789 2.82 18.0149 2.78C18.0509 2.74 18.0729 2.7 18.0809 2.66C18.0849 2.632 18.0969 2.598 18.1169 2.558C18.1369 2.514 18.1609 2.468 18.1889 2.42C18.2129 2.372 18.2389 2.324 18.2669 2.276C18.2949 2.228 18.3229 2.182 18.3509 2.138C18.3669 2.118 18.3789 2.1 18.3869 2.084C18.3989 2.064 18.4089 2.046 18.4169 2.03L18.6389 1.676L18.7949 1.424C18.8389 1.372 18.8889 1.326 18.9449 1.286C19.0009 1.242 19.0809 1.224 19.1849 1.232H19.4309ZM21.6076 3.02C21.4596 3.02 21.3476 3.07 21.2716 3.17C21.1996 3.266 21.1516 3.39 21.1276 3.542L21.1576 3.704C21.1576 3.784 21.1376 3.858 21.0976 3.926C21.0816 3.958 21.0676 3.992 21.0556 4.028C21.0436 4.06 21.0456 4.092 21.0616 4.124C21.0616 4.132 21.0656 4.144 21.0736 4.16L21.0856 4.184C21.1056 4.244 21.1256 4.306 21.1456 4.37C21.1656 4.43 21.1796 4.502 21.1876 4.586C21.1916 4.606 21.1936 4.622 21.1936 4.634C21.1936 4.646 21.1936 4.656 21.1936 4.664C21.1976 4.676 21.1996 4.698 21.1996 4.73C21.1996 4.758 21.1996 4.808 21.1996 4.88C21.1996 4.936 21.1956 4.99 21.1876 5.042C21.1836 5.098 21.1716 5.148 21.1516 5.192C21.1276 5.232 21.0936 5.266 21.0496 5.294C21.0056 5.322 20.9476 5.336 20.8756 5.336C20.8636 5.336 20.8516 5.336 20.8396 5.336C20.8276 5.34 20.8156 5.342 20.8036 5.342C20.7596 5.346 20.7076 5.342 20.6476 5.33C20.5876 5.322 20.5276 5.286 20.4676 5.222C20.4556 5.206 20.4456 5.182 20.4376 5.15C20.4296 5.118 20.4236 5.084 20.4196 5.048C20.4156 5.008 20.4136 4.968 20.4136 4.928C20.4176 4.888 20.4196 4.852 20.4196 4.82C20.4196 4.784 20.4196 4.756 20.4196 4.736C20.4236 4.712 20.4276 4.69 20.4316 4.67C20.4396 4.65 20.4436 4.628 20.4436 4.604C20.4436 4.58 20.4396 4.546 20.4316 4.502C20.4236 4.446 20.4176 4.392 20.4136 4.34C20.4096 4.288 20.4116 4.23 20.4196 4.166C20.4236 4.134 20.4256 4.102 20.4256 4.07C20.4296 4.038 20.4356 4.01 20.4436 3.986C20.4516 3.93 20.4596 3.87 20.4676 3.806C20.4756 3.742 20.4796 3.672 20.4796 3.596V3.47C20.4796 3.43 20.4776 3.394 20.4736 3.362C20.4736 3.33 20.4756 3.298 20.4796 3.266C20.4716 3.226 20.4596 3.186 20.4436 3.146C20.4316 3.102 20.4216 3.058 20.4136 3.014C20.3976 2.958 20.3836 2.908 20.3716 2.864C20.3636 2.816 20.3596 2.786 20.3596 2.774C20.3596 2.746 20.3536 2.71 20.3416 2.666C20.3296 2.63 20.3196 2.594 20.3116 2.558C20.3076 2.518 20.3096 2.482 20.3176 2.45C20.3256 2.422 20.3456 2.4 20.3776 2.384C20.4096 2.364 20.4576 2.354 20.5216 2.354C20.6136 2.354 20.6896 2.356 20.7496 2.36C20.8136 2.364 20.8636 2.378 20.8996 2.402C20.9276 2.43 20.9536 2.466 20.9776 2.51C21.0016 2.554 21.0196 2.598 21.0316 2.642C21.0796 2.594 21.1336 2.548 21.1936 2.504C21.2576 2.46 21.3316 2.428 21.4156 2.408L21.6016 2.366L21.5956 2.372C21.6156 2.364 21.6396 2.358 21.6676 2.354C21.6996 2.35 21.7256 2.344 21.7456 2.336L21.7936 2.348C21.8336 2.34 21.8756 2.336 21.9196 2.336C21.9676 2.332 22.0136 2.33 22.0576 2.33C22.1256 2.33 22.1896 2.334 22.2496 2.342C22.3136 2.35 22.3656 2.364 22.4056 2.384H22.3996C22.4556 2.408 22.4936 2.436 22.5136 2.468C22.5336 2.5 22.5436 2.534 22.5436 2.57C22.5396 2.606 22.5296 2.64 22.5136 2.672C22.4976 2.704 22.4816 2.732 22.4656 2.756C22.4616 2.764 22.4596 2.782 22.4596 2.81C22.4596 2.846 22.4556 2.88 22.4476 2.912C22.4396 2.94 22.4016 2.964 22.3336 2.984H22.3456C22.3256 2.992 22.2996 2.996 22.2676 2.996C22.2396 2.996 22.2056 2.992 22.1656 2.984H22.1716C22.1316 2.976 22.0876 2.972 22.0396 2.972C21.9916 2.968 21.9396 2.97 21.8836 2.978L21.7876 2.996C21.7596 3.004 21.7336 3.01 21.7096 3.014C21.6856 3.018 21.6516 3.02 21.6076 3.02ZM24.4539 3.044C24.4339 3 24.3879 2.954 24.3159 2.906C24.2479 2.854 24.1919 2.824 24.1479 2.816C24.1399 2.816 24.1279 2.814 24.1119 2.81C24.0999 2.806 24.0919 2.804 24.0879 2.804C24.0479 2.796 24.0099 2.792 23.9739 2.792C23.9419 2.792 23.9019 2.8 23.8539 2.816L23.7699 2.834C23.7139 2.846 23.6619 2.858 23.6139 2.87C23.5659 2.882 23.5379 2.902 23.5299 2.93C23.5259 2.95 23.5179 2.972 23.5059 2.996C23.4939 3.016 23.4839 3.032 23.4759 3.044L23.4459 3.104C23.4699 3.14 23.4839 3.17 23.4879 3.194C23.4919 3.218 23.4939 3.244 23.4939 3.272C23.4979 3.28 23.4999 3.29 23.4999 3.302C23.5039 3.314 23.5099 3.324 23.5179 3.332C23.5539 3.364 23.6079 3.4 23.6799 3.44C23.7519 3.48 23.8239 3.496 23.8959 3.488L23.9799 3.506C23.9999 3.51 24.0199 3.514 24.0399 3.518C24.0599 3.522 24.0739 3.524 24.0819 3.524C24.1779 3.52 24.2599 3.526 24.3279 3.542C24.3959 3.558 24.4739 3.582 24.5619 3.614C24.6619 3.654 24.7319 3.7 24.7719 3.752H24.8319C24.9239 3.812 25.0079 3.874 25.0839 3.938C25.1599 3.998 25.2239 4.064 25.2759 4.136C25.3319 4.216 25.3699 4.306 25.3899 4.406C25.4099 4.502 25.4159 4.596 25.4079 4.688C25.3879 4.824 25.3459 4.932 25.2819 5.012C25.2179 5.092 25.1499 5.156 25.0779 5.204L25.0839 5.198C25.0359 5.238 24.9779 5.27 24.9099 5.294C24.8419 5.318 24.7719 5.336 24.6999 5.348C24.6239 5.36 24.5499 5.368 24.4779 5.372C24.4059 5.38 24.3399 5.386 24.2799 5.39C24.2359 5.394 24.1919 5.394 24.1479 5.39C24.1079 5.386 24.0719 5.382 24.0399 5.378H24.0039C23.9079 5.37 23.7919 5.376 23.6559 5.396C23.6239 5.384 23.5979 5.376 23.5779 5.372C23.5579 5.368 23.5419 5.366 23.5299 5.366C23.5139 5.366 23.4999 5.366 23.4879 5.366C23.4759 5.37 23.4619 5.372 23.4459 5.372C23.4379 5.372 23.4299 5.37 23.4219 5.366C23.4139 5.366 23.4059 5.366 23.3979 5.366C23.2939 5.362 23.2099 5.348 23.1459 5.324C23.0859 5.304 23.0199 5.276 22.9479 5.24C22.8799 5.204 22.8199 5.162 22.7679 5.114C22.7159 5.066 22.6899 5.008 22.6899 4.94C22.6939 4.884 22.6979 4.836 22.7019 4.796C22.7099 4.752 22.7219 4.708 22.7379 4.664C22.7459 4.656 22.7499 4.648 22.7499 4.64C22.7499 4.58 22.7739 4.52 22.8219 4.46C22.8739 4.4 22.9339 4.372 23.0019 4.376C23.0579 4.376 23.1099 4.398 23.1579 4.442C23.2099 4.482 23.2459 4.534 23.2659 4.598C23.2779 4.614 23.2879 4.628 23.2959 4.64C23.3079 4.652 23.3179 4.662 23.3259 4.67L23.3919 4.736C23.4879 4.784 23.5859 4.812 23.6859 4.82C23.7899 4.824 23.8939 4.824 23.9979 4.82C24.0259 4.82 24.0539 4.82 24.0819 4.82C24.1139 4.816 24.1439 4.814 24.1719 4.814C24.2599 4.826 24.3319 4.828 24.3879 4.82C24.4439 4.812 24.4919 4.796 24.5319 4.772C24.5719 4.748 24.6039 4.718 24.6279 4.682C24.6559 4.642 24.6819 4.6 24.7059 4.556C24.7139 4.528 24.7019 4.492 24.6699 4.448C24.6579 4.424 24.6459 4.4 24.6339 4.376C24.6219 4.352 24.6159 4.326 24.6159 4.298C24.6159 4.274 24.5979 4.254 24.5619 4.238C24.5299 4.222 24.4859 4.204 24.4299 4.184H24.4239L24.3579 4.148C24.2699 4.164 24.1799 4.162 24.0879 4.142C23.9999 4.118 23.9199 4.088 23.8479 4.052L23.8179 4.076L23.4219 3.956C23.3339 3.92 23.2519 3.882 23.1759 3.842C23.0999 3.798 23.0259 3.746 22.9539 3.686C22.8899 3.634 22.8359 3.568 22.7919 3.488C22.7519 3.408 22.7219 3.304 22.7019 3.176C22.6939 3.096 22.6999 3.032 22.7199 2.984C22.7439 2.932 22.7719 2.876 22.8039 2.816V2.822C22.8519 2.718 22.9279 2.634 23.0319 2.57C23.1399 2.502 23.2439 2.446 23.3439 2.402C23.3759 2.402 23.4079 2.398 23.4399 2.39C23.4759 2.378 23.5099 2.366 23.5419 2.354H23.5359L23.6259 2.318C23.6819 2.306 23.7419 2.298 23.8059 2.294C23.8739 2.29 23.9439 2.29 24.0159 2.294C24.1159 2.294 24.2179 2.298 24.3219 2.306C24.4299 2.314 24.5259 2.33 24.6099 2.354C24.6779 2.366 24.7459 2.388 24.8139 2.42C24.8859 2.448 24.9519 2.476 25.0119 2.504H25.0059C25.0579 2.528 25.0959 2.558 25.1199 2.594C25.1479 2.63 25.1659 2.666 25.1739 2.702C25.1779 2.742 25.1759 2.782 25.1679 2.822C25.1639 2.858 25.1559 2.888 25.1439 2.912C25.1359 2.924 25.1179 2.944 25.0899 2.972C25.0619 2.996 25.0299 3.02 24.9939 3.044C24.9539 3.068 24.9099 3.088 24.8619 3.104C24.8179 3.116 24.7719 3.118 24.7239 3.11L24.4539 3.044ZM26.0382 4.514C26.0742 4.514 26.1042 4.518 26.1282 4.526C26.1562 4.534 26.1842 4.542 26.2122 4.55H26.2062C26.2222 4.558 26.2362 4.564 26.2482 4.568C26.2642 4.572 26.2822 4.576 26.3022 4.58C26.3502 4.604 26.3962 4.636 26.4402 4.676C26.4842 4.712 26.5122 4.764 26.5242 4.832L26.5482 4.904C26.5562 4.928 26.5642 4.956 26.5722 4.988C26.5802 5.016 26.5842 5.044 26.5842 5.072C26.5842 5.088 26.5822 5.102 26.5782 5.114C26.5782 5.13 26.5702 5.146 26.5542 5.162C26.5502 5.166 26.5462 5.17 26.5422 5.174C26.5382 5.182 26.5382 5.184 26.5422 5.18C26.5062 5.272 26.4662 5.342 26.4222 5.39C26.3782 5.442 26.2982 5.454 26.1822 5.426C26.1742 5.426 26.1682 5.428 26.1642 5.432C26.1602 5.436 26.1542 5.438 26.1462 5.438C26.1262 5.442 26.1102 5.446 26.0982 5.45C26.0902 5.454 26.0622 5.456 26.0142 5.456C25.9622 5.456 25.9082 5.448 25.8522 5.432C25.8002 5.42 25.7542 5.398 25.7142 5.366C25.6702 5.334 25.6402 5.294 25.6242 5.246C25.6082 5.202 25.6122 5.146 25.6362 5.078L25.6302 5.084C25.6342 5.068 25.6362 5.05 25.6362 5.03C25.6362 4.998 25.6462 4.946 25.6662 4.874L25.6782 4.862C25.6942 4.842 25.7082 4.822 25.7202 4.802C25.7322 4.782 25.7422 4.762 25.7502 4.742C25.7742 4.686 25.8082 4.636 25.8522 4.592C25.8962 4.548 25.9582 4.522 26.0382 4.514ZM29.0611 4.916C29.1291 4.844 29.1811 4.788 29.2171 4.748C29.2531 4.708 29.2831 4.672 29.3071 4.64L29.3731 4.568C29.3891 4.552 29.4011 4.524 29.4091 4.484C29.4211 4.44 29.4291 4.394 29.4331 4.346C29.4371 4.302 29.4391 4.258 29.4391 4.214C29.4391 4.166 29.4391 4.128 29.4391 4.1C29.4391 4.076 29.4431 4.052 29.4511 4.028C29.4591 4 29.4671 3.976 29.4751 3.956C29.4831 3.912 29.4871 3.87 29.4871 3.83C29.4871 3.79 29.4871 3.752 29.4871 3.716C29.4871 3.612 29.4811 3.504 29.4691 3.392C29.4571 3.276 29.4431 3.17 29.4271 3.074L29.4031 2.9C29.3951 2.836 29.3931 2.77 29.3971 2.702C29.4051 2.634 29.4131 2.572 29.4211 2.516C29.4291 2.484 29.4331 2.452 29.4331 2.42C29.4371 2.388 29.4391 2.362 29.4391 2.342L29.4211 2.06C29.4171 2.028 29.4151 1.994 29.4151 1.958C29.4151 1.918 29.4151 1.882 29.4151 1.85C29.3751 1.858 29.3351 1.864 29.2951 1.868C29.2551 1.872 29.2151 1.876 29.1751 1.88C29.0951 1.888 29.0331 1.89 28.9891 1.886C28.9451 1.878 28.9111 1.866 28.8871 1.85C28.8631 1.838 28.8471 1.822 28.8391 1.802C28.8351 1.782 28.8311 1.762 28.8271 1.742V1.736C28.8151 1.712 28.8111 1.69 28.8151 1.67C28.8231 1.646 28.8311 1.622 28.8391 1.598C28.8471 1.574 28.8511 1.558 28.8511 1.55C28.8311 1.466 28.8311 1.4 28.8511 1.352C28.8751 1.304 28.9071 1.268 28.9471 1.244C28.9871 1.224 29.0311 1.212 29.0791 1.208C29.1271 1.204 29.1691 1.202 29.2051 1.202H29.2231C29.2551 1.202 29.2971 1.21 29.3491 1.226V1.22C29.3771 1.228 29.4091 1.238 29.4451 1.25C29.4811 1.258 29.5151 1.262 29.5471 1.262C29.5791 1.238 29.6131 1.226 29.6491 1.226C29.6851 1.222 29.7271 1.222 29.7751 1.226C29.7871 1.226 29.7971 1.228 29.8051 1.232C29.8171 1.232 29.8331 1.232 29.8531 1.232C29.8971 1.22 29.9411 1.214 29.9851 1.214C30.0331 1.214 30.0831 1.236 30.1351 1.28C30.1951 1.352 30.2191 1.43 30.2071 1.514C30.2151 1.546 30.2171 1.58 30.2131 1.616C30.2131 1.648 30.2131 1.682 30.2131 1.718C30.2131 1.75 30.2131 1.78 30.2131 1.808C30.2171 1.832 30.2191 1.858 30.2191 1.886C30.2231 1.946 30.2251 2.014 30.2251 2.09C30.2251 2.166 30.2211 2.24 30.2131 2.312C30.2091 2.368 30.2031 2.434 30.1951 2.51C30.1911 2.586 30.1851 2.662 30.1771 2.738C30.1651 2.818 30.1511 2.894 30.1351 2.966C30.1231 3.038 30.1091 3.098 30.0931 3.146C30.0771 3.19 30.0731 3.242 30.0811 3.302C30.0931 3.362 30.1071 3.422 30.1231 3.482C30.1311 3.522 30.1391 3.56 30.1471 3.596C30.1551 3.628 30.1591 3.666 30.1591 3.71V3.836C30.1591 3.888 30.1571 3.946 30.1531 4.01C30.1531 4.07 30.1551 4.142 30.1591 4.226C30.1671 4.282 30.1691 4.344 30.1651 4.412C30.1611 4.48 30.1491 4.554 30.1291 4.634C30.1011 4.734 30.0431 4.834 29.9551 4.934C29.8671 5.03 29.7831 5.114 29.7031 5.186L29.5831 5.312C29.5271 5.388 29.4711 5.446 29.4151 5.486C29.3591 5.53 29.3071 5.562 29.2591 5.582C29.2071 5.598 29.1611 5.606 29.1211 5.606C29.0811 5.61 29.0491 5.608 29.0251 5.6L29.0311 5.606C29.0071 5.602 28.9811 5.592 28.9531 5.576C28.9251 5.564 28.9011 5.546 28.8811 5.522C28.8571 5.494 28.8411 5.458 28.8331 5.414C28.8291 5.37 28.8351 5.314 28.8511 5.246C28.8631 5.186 28.8891 5.128 28.9291 5.072C28.9731 5.016 29.0171 4.964 29.0611 4.916ZM31.4626 3.878C31.4586 3.906 31.4546 3.932 31.4506 3.956C31.4466 3.98 31.4406 4.006 31.4326 4.034C31.4166 4.054 31.4086 4.078 31.4086 4.106C31.4086 4.134 31.4126 4.162 31.4206 4.19C31.4286 4.222 31.4386 4.252 31.4506 4.28C31.4626 4.308 31.4746 4.33 31.4866 4.346C31.4946 4.37 31.5006 4.386 31.5046 4.394C31.5126 4.398 31.5206 4.406 31.5286 4.418C31.5406 4.438 31.5546 4.462 31.5706 4.49C31.5866 4.514 31.5966 4.532 31.6006 4.544C31.6326 4.612 31.6826 4.666 31.7506 4.706C31.8186 4.746 31.8986 4.78 31.9906 4.808C32.0306 4.82 32.0626 4.83 32.0866 4.838C32.1146 4.842 32.1406 4.846 32.1646 4.85C32.1886 4.854 32.2146 4.856 32.2426 4.856C32.2746 4.852 32.3126 4.848 32.3566 4.844C32.3846 4.84 32.4186 4.832 32.4586 4.82C32.5026 4.804 32.5446 4.784 32.5846 4.76C32.6246 4.736 32.6586 4.712 32.6866 4.688C32.7186 4.66 32.7406 4.632 32.7526 4.604L33.0346 4.562L33.0226 4.568C33.0826 4.544 33.1346 4.54 33.1786 4.556C33.2266 4.572 33.2686 4.594 33.3046 4.622C33.3406 4.65 33.3686 4.68 33.3886 4.712C33.4086 4.74 33.4226 4.76 33.4306 4.772C33.4306 4.788 33.4346 4.8 33.4426 4.808L33.4486 4.82C33.4566 4.832 33.4646 4.85 33.4726 4.874C33.4806 4.894 33.4826 4.916 33.4786 4.94C33.4706 4.956 33.4666 4.972 33.4666 4.988C33.4546 5.028 33.4346 5.07 33.4066 5.114C33.3826 5.162 33.3426 5.196 33.2866 5.216C33.1666 5.268 33.0446 5.31 32.9206 5.342L32.8426 5.366C32.8106 5.374 32.7566 5.378 32.6806 5.378C32.6086 5.378 32.5446 5.378 32.4886 5.378C32.4446 5.382 32.4006 5.384 32.3566 5.384C32.3126 5.384 32.2686 5.384 32.2246 5.384C32.0326 5.384 31.8506 5.358 31.6786 5.306C31.6466 5.286 31.6206 5.272 31.6006 5.264C31.5806 5.256 31.5626 5.248 31.5466 5.24C31.5106 5.228 31.4846 5.214 31.4686 5.198C31.4606 5.19 31.4446 5.184 31.4206 5.18C31.4006 5.18 31.3786 5.182 31.3546 5.186C31.2946 5.158 31.2386 5.12 31.1866 5.072C31.1346 5.024 31.0866 4.972 31.0426 4.916C30.9986 4.864 30.9586 4.812 30.9226 4.76C30.8906 4.708 30.8646 4.662 30.8446 4.622C30.8246 4.586 30.8046 4.542 30.7846 4.49C30.7686 4.438 30.7526 4.39 30.7366 4.346V4.352C30.7126 4.28 30.6986 4.216 30.6946 4.16C30.6906 4.1 30.6926 4.044 30.7006 3.992V3.908C30.6966 3.86 30.6966 3.812 30.7006 3.764C30.7086 3.712 30.7286 3.658 30.7606 3.602C30.8086 3.378 30.9006 3.148 31.0366 2.912C31.0886 2.824 31.1606 2.742 31.2526 2.666C31.3446 2.59 31.4306 2.522 31.5106 2.462L31.6486 2.36C31.8446 2.312 32.0366 2.288 32.2246 2.288C32.3286 2.288 32.4286 2.296 32.5246 2.312C32.6246 2.328 32.7126 2.354 32.7886 2.39C32.8446 2.442 32.8866 2.484 32.9146 2.516C32.9466 2.544 32.9746 2.574 32.9986 2.606V2.612C33.0266 2.62 33.0546 2.622 33.0826 2.618C33.2586 2.75 33.3726 2.868 33.4246 2.972C33.4326 2.98 33.4386 2.994 33.4426 3.014C33.4506 3.03 33.4586 3.044 33.4666 3.056C33.4866 3.092 33.5086 3.132 33.5326 3.176C33.5566 3.216 33.5726 3.254 33.5806 3.29C33.5886 3.334 33.5946 3.376 33.5986 3.416C33.6026 3.452 33.6046 3.49 33.6046 3.53C33.6046 3.634 33.5886 3.714 33.5566 3.77C33.5286 3.822 33.4946 3.87 33.4546 3.914C33.3506 4.006 33.2326 4.062 33.1006 4.082C32.9686 4.102 32.8466 4.116 32.7346 4.124C32.7186 4.124 32.7026 4.126 32.6866 4.13C32.6746 4.13 32.6626 4.13 32.6506 4.13C32.6066 4.134 32.5666 4.138 32.5306 4.142C32.4946 4.142 32.4606 4.142 32.4286 4.142C32.3766 4.142 32.3246 4.146 32.2726 4.154C32.2206 4.158 32.1526 4.172 32.0686 4.196C32.0206 4.184 31.9886 4.18 31.9726 4.184C31.9606 4.184 31.9426 4.184 31.9186 4.184H31.8406C31.7766 4.18 31.7266 4.158 31.6906 4.118C31.6546 4.078 31.6286 4.03 31.6126 3.974C31.5926 3.922 31.5826 3.87 31.5826 3.818C31.5826 3.766 31.5886 3.724 31.6006 3.692C31.6046 3.664 31.6226 3.642 31.6546 3.626C31.6866 3.61 31.7246 3.598 31.7686 3.59C31.8086 3.582 31.8486 3.576 31.8886 3.572C31.9326 3.568 31.9686 3.566 31.9966 3.566H32.0326C32.0566 3.566 32.0726 3.564 32.0806 3.56C32.1086 3.552 32.1386 3.548 32.1706 3.548C32.2066 3.544 32.2646 3.55 32.3446 3.566C32.4366 3.586 32.5006 3.596 32.5366 3.596C32.5806 3.596 32.6246 3.588 32.6686 3.572C32.7126 3.556 32.7806 3.532 32.8726 3.5C32.8806 3.484 32.8826 3.466 32.8786 3.446C32.8746 3.422 32.8706 3.398 32.8666 3.374C32.8626 3.358 32.8606 3.342 32.8606 3.326C32.8606 3.306 32.8606 3.286 32.8606 3.266C32.7766 3.11 32.6686 3.002 32.5366 2.942C32.4726 2.914 32.4046 2.892 32.3326 2.876C32.2606 2.86 32.1906 2.844 32.1226 2.828C32.1026 2.824 32.0846 2.82 32.0686 2.816C32.0566 2.808 32.0406 2.802 32.0206 2.798C31.9246 2.85 31.8326 2.926 31.7446 3.026C31.6606 3.122 31.5966 3.222 31.5526 3.326C31.5326 3.382 31.5166 3.44 31.5046 3.5C31.4966 3.56 31.4906 3.62 31.4866 3.68L31.4626 3.878ZM34.92 2.354C35.076 2.318 35.226 2.3 35.37 2.3C35.558 2.3 35.744 2.34 35.928 2.42C35.984 2.468 36.024 2.506 36.048 2.534C36.072 2.558 36.088 2.58 36.096 2.6L36.084 2.594L36.108 2.624C36.128 2.632 36.164 2.634 36.216 2.63C36.32 2.726 36.408 2.83 36.48 2.942C36.552 3.05 36.612 3.158 36.66 3.266C36.724 3.394 36.77 3.528 36.798 3.668C36.83 3.804 36.842 3.94 36.834 4.076C36.806 4.292 36.768 4.476 36.72 4.628C36.676 4.776 36.626 4.892 36.57 4.976C36.45 5.092 36.318 5.168 36.174 5.204C36.03 5.244 35.888 5.274 35.748 5.294L35.526 5.306C35.414 5.314 35.304 5.322 35.196 5.33C35.088 5.342 34.988 5.362 34.896 5.39C34.856 5.382 34.814 5.378 34.77 5.378C34.726 5.378 34.682 5.378 34.638 5.378C34.534 5.378 34.434 5.372 34.338 5.36C34.246 5.352 34.16 5.314 34.08 5.246C34.036 5.21 33.988 5.162 33.936 5.102C33.888 5.046 33.864 4.972 33.864 4.88C33.864 4.764 33.868 4.646 33.876 4.526C33.888 4.406 33.904 4.296 33.924 4.196C33.96 3.992 34.04 3.792 34.164 3.596C34.188 3.48 34.222 3.366 34.266 3.254C34.314 3.142 34.37 3.028 34.434 2.912C34.558 2.692 34.71 2.512 34.89 2.372L34.92 2.354ZM35.154 2.81C35.062 2.858 34.986 2.93 34.926 3.026C34.87 3.122 34.82 3.224 34.776 3.332C34.732 3.432 34.696 3.526 34.668 3.614C34.64 3.698 34.614 3.786 34.59 3.878L34.542 4.058C34.522 4.118 34.512 4.18 34.512 4.244C34.512 4.312 34.522 4.38 34.542 4.448C34.566 4.512 34.598 4.562 34.638 4.598H34.632C34.68 4.638 34.732 4.664 34.788 4.676C34.848 4.688 34.912 4.694 34.98 4.694C35.036 4.694 35.092 4.69 35.148 4.682C35.208 4.674 35.266 4.666 35.322 4.658C35.354 4.65 35.388 4.646 35.424 4.646C35.464 4.642 35.5 4.638 35.532 4.634C35.704 4.666 35.84 4.618 35.94 4.49C35.964 4.45 35.986 4.404 36.006 4.352C36.026 4.296 36.044 4.246 36.06 4.202C36.068 4.174 36.074 4.148 36.078 4.124C36.086 4.096 36.094 4.068 36.102 4.04C36.134 4.008 36.15 3.966 36.15 3.914C36.15 3.85 36.144 3.79 36.132 3.734C36.12 3.674 36.104 3.624 36.084 3.584C36.064 3.516 36.052 3.468 36.048 3.44C36.044 3.412 36.04 3.388 36.036 3.368C36.004 3.268 35.956 3.182 35.892 3.11C35.828 3.034 35.754 2.98 35.67 2.948C35.61 2.92 35.542 2.898 35.466 2.882C35.394 2.866 35.324 2.85 35.256 2.834L35.154 2.81ZM41.268 5.336C41.256 5.336 41.242 5.336 41.226 5.336C41.214 5.34 41.202 5.342 41.19 5.342C41.134 5.346 41.08 5.346 41.028 5.342C40.98 5.338 40.932 5.312 40.884 5.264C40.864 5.24 40.848 5.21 40.836 5.174C40.828 5.138 40.824 5.1 40.824 5.06C40.82 5.016 40.818 4.972 40.818 4.928C40.822 4.884 40.824 4.844 40.824 4.808C40.824 4.8 40.826 4.778 40.83 4.742C40.834 4.706 40.838 4.636 40.842 4.532C40.842 4.512 40.84 4.474 40.836 4.418C40.836 4.358 40.834 4.312 40.83 4.28C40.81 4.156 40.812 4.038 40.836 3.926C40.856 3.854 40.86 3.784 40.848 3.716C40.84 3.648 40.828 3.574 40.812 3.494C40.812 3.486 40.81 3.474 40.806 3.458C40.806 3.442 40.806 3.428 40.806 3.416C40.806 3.388 40.804 3.364 40.8 3.344C40.8 3.324 40.798 3.304 40.794 3.284C40.786 3.268 40.776 3.248 40.764 3.224C40.756 3.2 40.744 3.168 40.728 3.128H40.734C40.682 3.044 40.626 2.99 40.566 2.966C40.51 2.938 40.44 2.936 40.356 2.96C40.292 2.952 40.25 2.948 40.23 2.948C40.21 2.944 40.198 2.942 40.194 2.942C40.186 2.95 40.174 2.956 40.158 2.96C40.146 2.96 40.124 2.96 40.092 2.96C39.976 2.96 39.896 2.986 39.852 3.038C39.808 3.09 39.774 3.162 39.75 3.254C39.758 3.278 39.762 3.304 39.762 3.332C39.762 3.356 39.762 3.384 39.762 3.416C39.762 3.46 39.758 3.5 39.75 3.536C39.742 3.568 39.734 3.6 39.726 3.632C39.71 3.684 39.696 3.736 39.684 3.788C39.676 3.836 39.68 3.88 39.696 3.92C39.716 3.976 39.728 4.036 39.732 4.1C39.74 4.16 39.746 4.228 39.75 4.304C39.75 4.328 39.75 4.354 39.75 4.382C39.754 4.406 39.758 4.434 39.762 4.466C39.762 4.502 39.762 4.534 39.762 4.562C39.766 4.586 39.77 4.61 39.774 4.634C39.778 4.666 39.782 4.7 39.786 4.736C39.79 4.772 39.792 4.82 39.792 4.88C39.792 4.936 39.79 4.99 39.786 5.042C39.782 5.098 39.77 5.148 39.75 5.192C39.726 5.232 39.692 5.266 39.648 5.294C39.608 5.322 39.552 5.336 39.48 5.336C39.468 5.336 39.454 5.336 39.438 5.336C39.426 5.34 39.414 5.342 39.402 5.342C39.35 5.346 39.298 5.344 39.246 5.336C39.194 5.328 39.134 5.29 39.066 5.222C39.054 5.21 39.044 5.188 39.036 5.156C39.032 5.124 39.03 5.088 39.03 5.048C39.03 5.008 39.03 4.968 39.03 4.928C39.034 4.884 39.036 4.844 39.036 4.808L39.06 4.592C39.06 4.572 39.058 4.542 39.054 4.502C39.054 4.462 39.05 4.426 39.042 4.394C39.022 4.266 39.026 4.15 39.054 4.046C39.074 3.958 39.084 3.886 39.084 3.83C39.084 3.798 39.08 3.764 39.072 3.728C39.064 3.692 39.048 3.654 39.024 3.614C39.024 3.594 39.022 3.574 39.018 3.554C39.018 3.534 39.018 3.516 39.018 3.5C39.014 3.436 39.008 3.376 39 3.32C38.992 3.264 38.972 3.2 38.94 3.128H38.946C38.894 3.044 38.838 2.99 38.778 2.966C38.722 2.938 38.654 2.936 38.574 2.96C38.506 2.952 38.462 2.948 38.442 2.948C38.422 2.944 38.41 2.942 38.406 2.942C38.386 2.954 38.354 2.96 38.31 2.96C38.242 2.96 38.186 2.97 38.142 2.99C38.098 3.01 38.062 3.038 38.034 3.074C38.006 3.114 37.984 3.162 37.968 3.218C37.956 3.274 37.944 3.338 37.932 3.41L37.968 3.53C37.968 3.578 37.96 3.62 37.944 3.656C37.932 3.688 37.92 3.72 37.908 3.752C37.892 3.784 37.878 3.816 37.866 3.848C37.858 3.88 37.862 3.914 37.878 3.95C37.91 4.034 37.932 4.128 37.944 4.232C37.956 4.336 37.966 4.434 37.974 4.526C37.978 4.542 37.98 4.558 37.98 4.574C37.98 4.59 37.98 4.602 37.98 4.61C37.984 4.622 37.986 4.644 37.986 4.676C37.986 4.708 37.986 4.774 37.986 4.874C37.986 4.926 37.984 4.978 37.98 5.03C37.98 5.086 37.972 5.138 37.956 5.186C37.936 5.23 37.906 5.266 37.866 5.294C37.826 5.322 37.768 5.336 37.692 5.336C37.68 5.336 37.668 5.336 37.656 5.336C37.644 5.34 37.632 5.342 37.62 5.342C37.576 5.346 37.524 5.342 37.464 5.33C37.404 5.322 37.344 5.286 37.284 5.222C37.272 5.206 37.262 5.182 37.254 5.15C37.246 5.118 37.24 5.084 37.236 5.048C37.232 5.008 37.23 4.968 37.23 4.928C37.234 4.888 37.236 4.852 37.236 4.82C37.236 4.784 37.236 4.754 37.236 4.73C37.24 4.702 37.244 4.678 37.248 4.658C37.256 4.626 37.26 4.594 37.26 4.562C37.264 4.53 37.26 4.488 37.248 4.436C37.24 4.38 37.234 4.316 37.23 4.244C37.226 4.172 37.228 4.106 37.236 4.046C37.24 4.014 37.242 3.982 37.242 3.95C37.246 3.914 37.252 3.886 37.26 3.866C37.268 3.81 37.276 3.75 37.284 3.686C37.292 3.622 37.296 3.552 37.296 3.476C37.296 3.448 37.294 3.424 37.29 3.404C37.29 3.384 37.29 3.364 37.29 3.344V3.254L37.224 2.996C37.212 2.944 37.2 2.898 37.188 2.858C37.18 2.814 37.176 2.786 37.176 2.774C37.176 2.746 37.17 2.71 37.158 2.666C37.146 2.63 37.136 2.594 37.128 2.558C37.124 2.518 37.126 2.482 37.134 2.45C37.142 2.422 37.162 2.4 37.194 2.384C37.226 2.364 37.274 2.354 37.338 2.354C37.43 2.354 37.506 2.356 37.566 2.36C37.63 2.364 37.68 2.378 37.716 2.402C37.74 2.426 37.76 2.452 37.776 2.48C37.796 2.504 37.812 2.526 37.824 2.546C37.872 2.502 37.928 2.462 37.992 2.426C38.06 2.39 38.13 2.366 38.202 2.354L38.268 2.336C38.272 2.336 38.296 2.33 38.34 2.318C38.38 2.338 38.402 2.35 38.406 2.354C38.414 2.354 38.42 2.354 38.424 2.354C38.456 2.346 38.494 2.342 38.538 2.342C38.574 2.338 38.602 2.338 38.622 2.342C38.642 2.342 38.668 2.344 38.7 2.348C38.708 2.348 38.718 2.35 38.73 2.354C38.746 2.354 38.758 2.354 38.766 2.354C38.838 2.37 38.906 2.386 38.97 2.402C39.034 2.418 39.096 2.438 39.156 2.462C39.216 2.486 39.272 2.518 39.324 2.558C39.376 2.594 39.424 2.642 39.468 2.702C39.524 2.63 39.592 2.56 39.672 2.492C39.756 2.424 39.862 2.378 39.99 2.354L40.056 2.336C40.06 2.336 40.084 2.33 40.128 2.318C40.168 2.338 40.19 2.35 40.194 2.354C40.202 2.354 40.208 2.354 40.212 2.354C40.244 2.346 40.282 2.342 40.326 2.342C40.366 2.338 40.396 2.338 40.416 2.342C40.436 2.342 40.462 2.344 40.494 2.348C40.502 2.348 40.512 2.35 40.524 2.354C40.536 2.354 40.546 2.354 40.554 2.354C40.634 2.37 40.71 2.388 40.782 2.408C40.858 2.424 40.93 2.448 40.998 2.48C41.062 2.516 41.122 2.562 41.178 2.618C41.238 2.674 41.29 2.746 41.334 2.834L41.394 2.918H41.388C41.424 2.962 41.46 3.018 41.496 3.086C41.532 3.15 41.55 3.242 41.55 3.362C41.55 3.394 41.544 3.428 41.532 3.464C41.52 3.5 41.51 3.536 41.502 3.572C41.49 3.608 41.48 3.646 41.472 3.686C41.464 3.722 41.468 3.762 41.484 3.806C41.504 3.862 41.516 3.922 41.52 3.986C41.528 4.046 41.534 4.112 41.538 4.184C41.538 4.208 41.538 4.234 41.538 4.262C41.542 4.29 41.546 4.32 41.55 4.352C41.55 4.384 41.55 4.42 41.55 4.46C41.554 4.496 41.558 4.534 41.562 4.574C41.566 4.618 41.57 4.666 41.574 4.718C41.578 4.77 41.58 4.824 41.58 4.88C41.58 4.936 41.578 4.99 41.574 5.042C41.57 5.098 41.558 5.148 41.538 5.192C41.514 5.232 41.48 5.266 41.436 5.294C41.396 5.322 41.34 5.336 41.268 5.336ZM43.9239 1.958C43.9159 1.93 43.8979 1.902 43.8699 1.874C43.8419 1.842 43.8119 1.812 43.7799 1.784C43.7439 1.76 43.7079 1.74 43.6719 1.724C43.6359 1.708 43.6059 1.698 43.5819 1.694C43.5459 1.69 43.5039 1.688 43.4559 1.688C43.4119 1.684 43.3919 1.68 43.3959 1.676C43.3639 1.676 43.3339 1.68 43.3059 1.688C43.2779 1.696 43.2459 1.704 43.2099 1.712H43.2159C43.1399 1.744 43.0659 1.778 42.9939 1.814C42.9219 1.85 42.8719 1.898 42.8439 1.958C42.8439 1.966 42.8419 1.972 42.8379 1.976C42.8379 1.98 42.8379 1.986 42.8379 1.994C42.8339 2.018 42.8299 2.042 42.8259 2.066C42.8259 2.09 42.8199 2.112 42.8079 2.132L42.8139 2.108C42.8059 2.124 42.8019 2.132 42.8019 2.132C42.7819 2.164 42.7639 2.202 42.7479 2.246C42.7359 2.286 42.7459 2.322 42.7779 2.354C42.7899 2.374 42.7979 2.4 42.8019 2.432C42.8059 2.46 42.8099 2.49 42.8139 2.522C42.8179 2.546 42.8199 2.572 42.8199 2.6C42.8239 2.624 42.8359 2.646 42.8559 2.666L42.8499 2.66C42.8739 2.688 42.9019 2.718 42.9339 2.75C42.9659 2.778 43.0019 2.804 43.0419 2.828C43.0819 2.856 43.1219 2.878 43.1619 2.894C43.2019 2.906 43.2399 2.908 43.2759 2.9C43.3519 2.904 43.4239 2.916 43.4919 2.936C43.4959 2.936 43.4979 2.938 43.4979 2.942C43.5019 2.942 43.5079 2.942 43.5159 2.942C43.6199 2.934 43.7159 2.94 43.8039 2.96C43.8919 2.976 43.9839 3.004 44.0799 3.044C44.1359 3.076 44.1799 3.104 44.2119 3.128C44.2439 3.148 44.2639 3.174 44.2719 3.206C44.3039 3.214 44.3299 3.216 44.3499 3.212C44.4539 3.292 44.5439 3.376 44.6199 3.464C44.6999 3.552 44.7679 3.642 44.8239 3.734C44.8799 3.834 44.9219 3.942 44.9499 4.058C44.9779 4.174 44.9879 4.284 44.9799 4.388C44.9639 4.568 44.9239 4.718 44.8599 4.838C44.7999 4.954 44.7359 5.046 44.6679 5.114C44.6119 5.166 44.5479 5.208 44.4759 5.24C44.4039 5.276 44.3279 5.304 44.2479 5.324C44.1679 5.344 44.0879 5.36 44.0079 5.372C43.9319 5.384 43.8599 5.392 43.7919 5.396C43.7359 5.404 43.6819 5.406 43.6299 5.402C43.5819 5.398 43.5339 5.394 43.4859 5.39C43.4299 5.382 43.3739 5.38 43.3179 5.384C43.2659 5.388 43.1999 5.4 43.1199 5.42C43.0679 5.408 43.0199 5.4 42.9759 5.396C42.9359 5.396 42.8939 5.396 42.8499 5.396C42.7459 5.396 42.6539 5.382 42.5739 5.354C42.4939 5.326 42.4179 5.29 42.3459 5.246H42.3339C42.3299 5.246 42.3279 5.244 42.3279 5.24C42.2799 5.208 42.2239 5.164 42.1599 5.108C42.0959 5.056 42.0639 4.99 42.0639 4.91C42.0639 4.81 42.0679 4.73 42.0759 4.67C42.0879 4.606 42.1019 4.536 42.1179 4.46C42.1179 4.452 42.1179 4.446 42.1179 4.442C42.1219 4.434 42.1239 4.428 42.1239 4.424C42.1599 4.272 42.2339 4.196 42.3459 4.196C42.3979 4.196 42.4499 4.222 42.5019 4.274C42.5539 4.322 42.5899 4.382 42.6099 4.454C42.6179 4.498 42.6319 4.532 42.6519 4.556C42.6719 4.58 42.6939 4.602 42.7179 4.622L42.7779 4.67C42.8459 4.702 42.9299 4.73 43.0299 4.754C43.1339 4.778 43.2259 4.79 43.3059 4.79C43.3619 4.79 43.4139 4.79 43.4619 4.79C43.5099 4.786 43.5559 4.782 43.5999 4.778H43.6599C43.7399 4.794 43.8279 4.792 43.9239 4.772C44.0199 4.752 44.0899 4.714 44.1339 4.658C44.1539 4.634 44.1699 4.606 44.1819 4.574C44.1939 4.538 44.2039 4.504 44.2119 4.472C44.2239 4.42 44.2439 4.366 44.2719 4.31C44.2999 4.278 44.3039 4.242 44.2839 4.202C44.2679 4.162 44.2499 4.124 44.2299 4.088L44.2059 4.04L44.2119 4.046C44.1919 4.018 44.1799 3.992 44.1759 3.968C44.1759 3.94 44.1759 3.914 44.1759 3.89C44.1759 3.882 44.1739 3.878 44.1699 3.878C44.1699 3.874 44.1699 3.868 44.1699 3.86C44.1539 3.816 44.1299 3.78 44.0979 3.752C44.0659 3.724 44.0139 3.694 43.9419 3.662L43.8399 3.614C43.8319 3.614 43.8259 3.616 43.8219 3.62C43.8179 3.62 43.8099 3.616 43.7979 3.608C43.7179 3.628 43.6299 3.628 43.5339 3.608C43.4419 3.584 43.3619 3.548 43.2939 3.5H43.2819L43.2339 3.53L42.7659 3.386C42.6859 3.354 42.6019 3.308 42.5139 3.248C42.4259 3.188 42.3479 3.128 42.2799 3.068C42.2119 3 42.1539 2.914 42.1059 2.81C42.0619 2.702 42.0279 2.566 42.0039 2.402C41.9959 2.306 41.9999 2.224 42.0159 2.156C42.0359 2.088 42.0639 2.012 42.0999 1.928L42.1179 1.892C42.1579 1.776 42.2299 1.676 42.3339 1.592C42.4419 1.508 42.5479 1.434 42.6519 1.37C42.6959 1.378 42.7219 1.378 42.7299 1.37C42.7539 1.346 42.7719 1.332 42.7839 1.328C42.8039 1.32 42.8259 1.312 42.8499 1.304C42.8739 1.292 42.8979 1.274 42.9219 1.25C42.9899 1.222 43.0599 1.204 43.1319 1.196C43.2079 1.184 43.2839 1.178 43.3599 1.178C43.4159 1.178 43.4759 1.18 43.5399 1.184C43.6039 1.188 43.6619 1.194 43.7139 1.202C43.7619 1.198 43.8199 1.2 43.8879 1.208C43.9559 1.212 44.0079 1.218 44.0439 1.226C44.1159 1.25 44.1899 1.278 44.2659 1.31C44.3459 1.342 44.4179 1.374 44.4819 1.406C44.5379 1.426 44.5779 1.462 44.6019 1.514C44.6259 1.562 44.6439 1.604 44.6559 1.64C44.6559 1.66 44.6579 1.674 44.6619 1.682V1.676C44.6699 1.7 44.6699 1.724 44.6619 1.748C44.6579 1.768 44.6519 1.788 44.6439 1.808C44.6399 1.812 44.6359 1.816 44.6319 1.82C44.6319 1.82 44.6319 1.83 44.6319 1.85C44.6279 1.858 44.6139 1.876 44.5899 1.904C44.5659 1.932 44.5359 1.958 44.4999 1.982C44.4599 2.01 44.4159 2.03 44.3679 2.042C44.3239 2.054 44.2759 2.048 44.2239 2.024L44.2359 2.03L43.9239 1.958ZM44.2539 3.2C44.2459 3.188 44.2379 3.182 44.2299 3.182L44.2539 3.2ZM46.0126 2.354C46.0846 2.354 46.1426 2.366 46.1866 2.39C46.2306 2.41 46.2646 2.436 46.2886 2.468C46.3086 2.504 46.3226 2.544 46.3306 2.588C46.3386 2.632 46.3426 2.674 46.3426 2.714C46.3426 2.75 46.3426 2.798 46.3426 2.858C46.3426 2.918 46.3426 2.98 46.3426 3.044C46.3386 3.108 46.3346 3.172 46.3306 3.236C46.3306 3.296 46.3286 3.346 46.3246 3.386C46.3166 3.43 46.3066 3.482 46.2946 3.542C46.2866 3.602 46.2766 3.664 46.2646 3.728C46.2526 3.796 46.2366 3.86 46.2166 3.92C46.2006 3.98 46.1846 4.028 46.1686 4.064C46.1606 4.084 46.1606 4.11 46.1686 4.142C46.1806 4.17 46.1946 4.2 46.2106 4.232C46.2226 4.264 46.2346 4.294 46.2466 4.322C46.2586 4.35 46.2646 4.38 46.2646 4.412V4.658C46.2646 4.69 46.2626 4.71 46.2586 4.718C46.2586 4.726 46.2606 4.752 46.2646 4.796L46.2766 4.79C46.3846 4.758 46.4626 4.752 46.5106 4.772C46.5626 4.792 46.6146 4.824 46.6666 4.868L46.7326 4.916C46.7726 4.952 46.7986 4.984 46.8106 5.012C46.8266 5.044 46.8326 5.076 46.8286 5.108C46.8246 5.136 46.8146 5.164 46.7986 5.192C46.7826 5.22 46.7646 5.248 46.7446 5.276H46.7506C46.7266 5.308 46.6806 5.33 46.6126 5.342C46.5446 5.354 46.4686 5.36 46.3846 5.36C46.3286 5.36 46.2706 5.358 46.2106 5.354C46.1506 5.354 46.0966 5.352 46.0486 5.348C46.0406 5.348 46.0326 5.346 46.0246 5.342C46.0166 5.342 46.0086 5.342 46.0006 5.342C45.9806 5.35 45.9566 5.356 45.9286 5.36C45.9046 5.364 45.8866 5.366 45.8746 5.366C45.8346 5.366 45.7986 5.358 45.7666 5.342C45.7506 5.342 45.7346 5.342 45.7186 5.342C45.7066 5.346 45.6906 5.35 45.6706 5.354C45.6386 5.358 45.6066 5.36 45.5746 5.36C45.5466 5.364 45.5166 5.366 45.4846 5.366C45.3766 5.366 45.2786 5.344 45.1906 5.3C45.1026 5.26 45.0586 5.19 45.0586 5.09C45.0666 4.986 45.1066 4.924 45.1786 4.904C45.2506 4.884 45.3406 4.874 45.4486 4.874C45.4886 4.874 45.5246 4.87 45.5566 4.862L45.5806 4.724C45.5886 4.676 45.5966 4.626 45.6046 4.574C45.6166 4.518 45.6226 4.464 45.6226 4.412C45.6226 4.324 45.6126 4.226 45.5926 4.118C45.5726 4.006 45.5546 3.91 45.5386 3.83L45.5266 3.776C45.5226 3.728 45.5226 3.676 45.5266 3.62C45.5306 3.56 45.5366 3.508 45.5446 3.464C45.5526 3.432 45.5566 3.404 45.5566 3.38C45.5606 3.352 45.5626 3.334 45.5626 3.326L45.5386 2.75C45.5346 2.694 45.5386 2.63 45.5506 2.558C45.5666 2.486 45.5966 2.432 45.6406 2.396C45.6726 2.368 45.7086 2.352 45.7486 2.348C45.7926 2.344 45.8426 2.344 45.8986 2.348C45.9186 2.348 45.9366 2.35 45.9526 2.354C45.9726 2.354 45.9926 2.354 46.0126 2.354ZM45.8926 0.992C45.9246 0.988 45.9546 0.992 45.9826 1.004C46.0106 1.012 46.0406 1.02 46.0726 1.028C46.0846 1.036 46.1126 1.042 46.1566 1.046C46.2006 1.066 46.2466 1.098 46.2946 1.142C46.3426 1.182 46.3726 1.236 46.3846 1.304C46.3886 1.316 46.3906 1.33 46.3906 1.346C46.3906 1.362 46.3946 1.372 46.4026 1.376C46.4266 1.42 46.4386 1.474 46.4386 1.538C46.4386 1.554 46.4366 1.57 46.4326 1.586C46.4326 1.598 46.4246 1.612 46.4086 1.628C46.3926 1.652 46.3846 1.672 46.3846 1.688C46.3606 1.76 46.3286 1.818 46.2886 1.862C46.2526 1.906 46.1766 1.914 46.0606 1.886C46.0526 1.886 46.0446 1.888 46.0366 1.892C46.0326 1.896 46.0266 1.898 46.0186 1.898C46.0066 1.898 46.0026 1.9 46.0066 1.904C46.0146 1.904 46.0186 1.904 46.0186 1.904C46.0146 1.908 46.0026 1.912 45.9826 1.916C45.9666 1.916 45.9286 1.916 45.8686 1.916C45.8206 1.916 45.7706 1.91 45.7186 1.898C45.6666 1.882 45.6206 1.86 45.5806 1.832C45.5406 1.804 45.5106 1.768 45.4906 1.724C45.4746 1.68 45.4766 1.628 45.4966 1.568C45.4966 1.556 45.4986 1.544 45.5026 1.532C45.5066 1.516 45.5086 1.502 45.5086 1.49C45.5086 1.482 45.5106 1.472 45.5146 1.46C45.5186 1.444 45.5226 1.428 45.5266 1.412C45.5306 1.396 45.5346 1.378 45.5386 1.358L45.5566 1.334C45.5926 1.29 45.6166 1.248 45.6286 1.208C45.6486 1.156 45.6766 1.11 45.7126 1.07C45.7526 1.026 45.8126 1 45.8926 0.992ZM51.1351 5.336C51.1231 5.336 51.1091 5.336 51.0931 5.336C51.0811 5.34 51.0691 5.342 51.0571 5.342C51.0011 5.346 50.9471 5.346 50.8951 5.342C50.8471 5.338 50.7991 5.312 50.7511 5.264C50.7311 5.24 50.7151 5.21 50.7031 5.174C50.6951 5.138 50.6911 5.1 50.6911 5.06C50.6871 5.016 50.6851 4.972 50.6851 4.928C50.6891 4.884 50.6911 4.844 50.6911 4.808C50.6911 4.8 50.6931 4.778 50.6971 4.742C50.7011 4.706 50.7051 4.636 50.7091 4.532C50.7091 4.512 50.7071 4.474 50.7031 4.418C50.7031 4.358 50.7011 4.312 50.6971 4.28C50.6771 4.156 50.6791 4.038 50.7031 3.926C50.7231 3.854 50.7271 3.784 50.7151 3.716C50.7071 3.648 50.6951 3.574 50.6791 3.494C50.6791 3.486 50.6771 3.474 50.6731 3.458C50.6731 3.442 50.6731 3.428 50.6731 3.416C50.6731 3.388 50.6711 3.364 50.6671 3.344C50.6671 3.324 50.6651 3.304 50.6611 3.284C50.6531 3.268 50.6431 3.248 50.6311 3.224C50.6231 3.2 50.6111 3.168 50.5951 3.128H50.6011C50.5491 3.044 50.4931 2.99 50.4331 2.966C50.3771 2.938 50.3071 2.936 50.2231 2.96C50.1591 2.952 50.1171 2.948 50.0971 2.948C50.0771 2.944 50.0651 2.942 50.0611 2.942C50.0531 2.95 50.0411 2.956 50.0251 2.96C50.0131 2.96 49.9911 2.96 49.9591 2.96C49.8431 2.96 49.7631 2.986 49.7191 3.038C49.6751 3.09 49.6411 3.162 49.6171 3.254C49.6251 3.278 49.6291 3.304 49.6291 3.332C49.6291 3.356 49.6291 3.384 49.6291 3.416C49.6291 3.46 49.6251 3.5 49.6171 3.536C49.6091 3.568 49.6011 3.6 49.5931 3.632C49.5771 3.684 49.5631 3.736 49.5511 3.788C49.5431 3.836 49.5471 3.88 49.5631 3.92C49.5831 3.976 49.5951 4.036 49.5991 4.1C49.6071 4.16 49.6131 4.228 49.6171 4.304C49.6171 4.328 49.6171 4.354 49.6171 4.382C49.6211 4.406 49.6251 4.434 49.6291 4.466C49.6291 4.502 49.6291 4.534 49.6291 4.562C49.6331 4.586 49.6371 4.61 49.6411 4.634C49.6451 4.666 49.6491 4.7 49.6531 4.736C49.6571 4.772 49.6591 4.82 49.6591 4.88C49.6591 4.936 49.6571 4.99 49.6531 5.042C49.6491 5.098 49.6371 5.148 49.6171 5.192C49.5931 5.232 49.5591 5.266 49.5151 5.294C49.4751 5.322 49.4191 5.336 49.3471 5.336C49.3351 5.336 49.3211 5.336 49.3051 5.336C49.2931 5.34 49.2811 5.342 49.2691 5.342C49.2171 5.346 49.1651 5.344 49.1131 5.336C49.0611 5.328 49.0011 5.29 48.9331 5.222C48.9211 5.21 48.9111 5.188 48.9031 5.156C48.8991 5.124 48.8971 5.088 48.8971 5.048C48.8971 5.008 48.8971 4.968 48.8971 4.928C48.9011 4.884 48.9031 4.844 48.9031 4.808L48.9271 4.592C48.9271 4.572 48.9251 4.542 48.9211 4.502C48.9211 4.462 48.9171 4.426 48.9091 4.394C48.8891 4.266 48.8931 4.15 48.9211 4.046C48.9411 3.958 48.9511 3.886 48.9511 3.83C48.9511 3.798 48.9471 3.764 48.9391 3.728C48.9311 3.692 48.9151 3.654 48.8911 3.614C48.8911 3.594 48.8891 3.574 48.8851 3.554C48.8851 3.534 48.8851 3.516 48.8851 3.5C48.8811 3.436 48.8751 3.376 48.8671 3.32C48.8591 3.264 48.8391 3.2 48.8071 3.128H48.8131C48.7611 3.044 48.7051 2.99 48.6451 2.966C48.5891 2.938 48.5211 2.936 48.4411 2.96C48.3731 2.952 48.3291 2.948 48.3091 2.948C48.2891 2.944 48.2771 2.942 48.2731 2.942C48.2531 2.954 48.2211 2.96 48.1771 2.96C48.1091 2.96 48.0531 2.97 48.0091 2.99C47.9651 3.01 47.9291 3.038 47.9011 3.074C47.8731 3.114 47.8511 3.162 47.8351 3.218C47.8231 3.274 47.8111 3.338 47.7991 3.41L47.8351 3.53C47.8351 3.578 47.8271 3.62 47.8111 3.656C47.7991 3.688 47.7871 3.72 47.7751 3.752C47.7591 3.784 47.7451 3.816 47.7331 3.848C47.7251 3.88 47.7291 3.914 47.7451 3.95C47.7771 4.034 47.7991 4.128 47.8111 4.232C47.8231 4.336 47.8331 4.434 47.8411 4.526C47.8451 4.542 47.8471 4.558 47.8471 4.574C47.8471 4.59 47.8471 4.602 47.8471 4.61C47.8511 4.622 47.8531 4.644 47.8531 4.676C47.8531 4.708 47.8531 4.774 47.8531 4.874C47.8531 4.926 47.8511 4.978 47.8471 5.03C47.8471 5.086 47.8391 5.138 47.8231 5.186C47.8031 5.23 47.7731 5.266 47.7331 5.294C47.6931 5.322 47.6351 5.336 47.5591 5.336C47.5471 5.336 47.5351 5.336 47.5231 5.336C47.5111 5.34 47.4991 5.342 47.4871 5.342C47.4431 5.346 47.3911 5.342 47.3311 5.33C47.2711 5.322 47.2111 5.286 47.1511 5.222C47.1391 5.206 47.1291 5.182 47.1211 5.15C47.1131 5.118 47.1071 5.084 47.1031 5.048C47.0991 5.008 47.0971 4.968 47.0971 4.928C47.1011 4.888 47.1031 4.852 47.1031 4.82C47.1031 4.784 47.1031 4.754 47.1031 4.73C47.1071 4.702 47.1111 4.678 47.1151 4.658C47.1231 4.626 47.1271 4.594 47.1271 4.562C47.1311 4.53 47.1271 4.488 47.1151 4.436C47.1071 4.38 47.1011 4.316 47.0971 4.244C47.0931 4.172 47.0951 4.106 47.1031 4.046C47.1071 4.014 47.1091 3.982 47.1091 3.95C47.1131 3.914 47.1191 3.886 47.1271 3.866C47.1351 3.81 47.1431 3.75 47.1511 3.686C47.1591 3.622 47.1631 3.552 47.1631 3.476C47.1631 3.448 47.1611 3.424 47.1571 3.404C47.1571 3.384 47.1571 3.364 47.1571 3.344V3.254L47.0911 2.996C47.0791 2.944 47.0671 2.898 47.0551 2.858C47.0471 2.814 47.0431 2.786 47.0431 2.774C47.0431 2.746 47.0371 2.71 47.0251 2.666C47.0131 2.63 47.0031 2.594 46.9951 2.558C46.9911 2.518 46.9931 2.482 47.0011 2.45C47.0091 2.422 47.0291 2.4 47.0611 2.384C47.0931 2.364 47.1411 2.354 47.2051 2.354C47.2971 2.354 47.3731 2.356 47.4331 2.36C47.4971 2.364 47.5471 2.378 47.5831 2.402C47.6071 2.426 47.6271 2.452 47.6431 2.48C47.6631 2.504 47.6791 2.526 47.6911 2.546C47.7391 2.502 47.7951 2.462 47.8591 2.426C47.9271 2.39 47.9971 2.366 48.0691 2.354L48.1351 2.336C48.1391 2.336 48.1631 2.33 48.2071 2.318C48.2471 2.338 48.2691 2.35 48.2731 2.354C48.2811 2.354 48.2871 2.354 48.2911 2.354C48.3231 2.346 48.3611 2.342 48.4051 2.342C48.4411 2.338 48.4691 2.338 48.4891 2.342C48.5091 2.342 48.5351 2.344 48.5671 2.348C48.5751 2.348 48.5851 2.35 48.5971 2.354C48.6131 2.354 48.6251 2.354 48.6331 2.354C48.7051 2.37 48.7731 2.386 48.8371 2.402C48.9011 2.418 48.9631 2.438 49.0231 2.462C49.0831 2.486 49.1391 2.518 49.1911 2.558C49.2431 2.594 49.2911 2.642 49.3351 2.702C49.3911 2.63 49.4591 2.56 49.5391 2.492C49.6231 2.424 49.7291 2.378 49.8571 2.354L49.9231 2.336C49.9271 2.336 49.9511 2.33 49.9951 2.318C50.0351 2.338 50.0571 2.35 50.0611 2.354C50.0691 2.354 50.0751 2.354 50.0791 2.354C50.1111 2.346 50.1491 2.342 50.1931 2.342C50.2331 2.338 50.2631 2.338 50.2831 2.342C50.3031 2.342 50.3291 2.344 50.3611 2.348C50.3691 2.348 50.3791 2.35 50.3911 2.354C50.4031 2.354 50.4131 2.354 50.4211 2.354C50.5011 2.37 50.5771 2.388 50.6491 2.408C50.7251 2.424 50.7971 2.448 50.8651 2.48C50.9291 2.516 50.9891 2.562 51.0451 2.618C51.1051 2.674 51.1571 2.746 51.2011 2.834L51.2611 2.918H51.2551C51.2911 2.962 51.3271 3.018 51.3631 3.086C51.3991 3.15 51.4171 3.242 51.4171 3.362C51.4171 3.394 51.4111 3.428 51.3991 3.464C51.3871 3.5 51.3771 3.536 51.3691 3.572C51.3571 3.608 51.3471 3.646 51.3391 3.686C51.3311 3.722 51.3351 3.762 51.3511 3.806C51.3711 3.862 51.3831 3.922 51.3871 3.986C51.3951 4.046 51.4011 4.112 51.4051 4.184C51.4051 4.208 51.4051 4.234 51.4051 4.262C51.4091 4.29 51.4131 4.32 51.4171 4.352C51.4171 4.384 51.4171 4.42 51.4171 4.46C51.4211 4.496 51.4251 4.534 51.4291 4.574C51.4331 4.618 51.4371 4.666 51.4411 4.718C51.4451 4.77 51.4471 4.824 51.4471 4.88C51.4471 4.936 51.4451 4.99 51.4411 5.042C51.4371 5.098 51.4251 5.148 51.4051 5.192C51.3811 5.232 51.3471 5.266 51.3031 5.294C51.2631 5.322 51.2071 5.336 51.1351 5.336Z" fill="#FFA732"/>
<path d="M25.3543 15.928C25.4183 16.088 25.4663 16.2267 25.4983 16.344C25.5409 16.4613 25.5729 16.5733 25.5943 16.68C25.6049 16.7867 25.6103 16.8933 25.6103 17C25.6103 17.096 25.6049 17.208 25.5943 17.336V17.432C25.5943 17.464 25.5889 17.5013 25.5783 17.544C25.5783 17.576 25.5783 17.6133 25.5783 17.656C25.5676 17.8373 25.5569 18.0453 25.5463 18.28C25.5356 18.504 25.5143 18.7333 25.4823 18.968C25.4503 19.2027 25.4076 19.4213 25.3543 19.624C25.3009 19.8267 25.2316 19.9973 25.1463 20.136C25.0396 20.296 24.8529 20.4187 24.5863 20.504C24.3303 20.5893 24.0476 20.6533 23.7383 20.696C23.4289 20.7387 23.1196 20.76 22.8103 20.76C22.5116 20.7707 22.2663 20.776 22.0743 20.776C21.8609 20.776 21.6476 20.7707 21.4343 20.76C21.2209 20.7493 21.0183 20.7387 20.8263 20.728C20.6769 20.7173 20.5383 20.7067 20.4103 20.696C20.2929 20.696 20.1863 20.696 20.0903 20.696C20.0263 20.696 19.9516 20.696 19.8663 20.696C19.7916 20.7067 19.7116 20.7173 19.6263 20.728C19.4023 20.76 19.1676 20.776 18.9223 20.776C18.7943 20.776 18.6823 20.7707 18.5863 20.76C18.4903 20.7493 18.3996 20.7227 18.3143 20.68C18.2609 20.6587 18.1863 20.6427 18.0903 20.632C18.0049 20.632 17.9036 20.632 17.7863 20.632C17.6369 20.632 17.4769 20.632 17.3063 20.632C17.1356 20.6427 16.9649 20.6533 16.7943 20.664C16.6663 20.6747 16.5383 20.68 16.4103 20.68C16.2823 20.6907 16.1703 20.696 16.0743 20.696C15.7649 20.696 15.5623 20.6267 15.4663 20.488C15.3703 20.3493 15.2956 20.1947 15.2423 20.024C15.2209 19.9813 15.2103 19.96 15.2103 19.96C15.1783 19.9067 15.1516 19.7947 15.1303 19.624C15.1196 19.464 15.1143 19.2827 15.1143 19.08C15.1143 18.888 15.1143 18.7067 15.1143 18.536C15.1249 18.3653 15.1356 18.1787 15.1463 17.976C15.1569 17.8053 15.1623 17.656 15.1623 17.528C15.1729 17.3893 15.1783 17.2773 15.1783 17.192C15.1783 17.0213 15.1836 16.8613 15.1943 16.712C15.2049 16.5627 15.2423 16.4187 15.3063 16.28C15.3596 16.1413 15.4396 16.0133 15.5463 15.896C15.6636 15.768 15.8236 15.6453 16.0263 15.528C16.2503 15.4213 16.5169 15.368 16.8263 15.368C16.9009 15.368 16.9756 15.368 17.0503 15.368C17.1356 15.368 17.2156 15.3733 17.2903 15.384C17.3863 15.3947 17.4823 15.4053 17.5783 15.416C17.6849 15.416 17.7916 15.416 17.8983 15.416C18.0583 15.416 18.2076 15.4213 18.3463 15.432C18.4956 15.4427 18.6449 15.4587 18.7943 15.48C19.1889 15.5333 19.6156 15.5493 20.0743 15.528C20.1809 15.5173 20.2769 15.5067 20.3623 15.496C20.4583 15.4853 20.5329 15.4747 20.5863 15.464C20.7463 15.432 20.9329 15.416 21.1463 15.416C21.2423 15.416 21.3489 15.4213 21.4663 15.432C21.5836 15.4427 21.7223 15.464 21.8823 15.496C22.0209 15.528 22.1596 15.544 22.2983 15.544C22.5116 15.544 22.7089 15.5173 22.8903 15.464C23.0716 15.4107 23.2369 15.3573 23.3863 15.304C23.4289 15.2933 23.4716 15.2827 23.5143 15.272C23.5676 15.2507 23.6209 15.2293 23.6743 15.208C23.7276 15.1867 23.7809 15.1707 23.8343 15.16H23.8183C24.1916 15.0747 24.5116 15.1173 24.7783 15.288C25.0556 15.4587 25.2476 15.672 25.3543 15.928ZM16.5703 12.968C16.5169 13.0213 16.4316 13.096 16.3143 13.192C16.1969 13.288 16.0689 13.3893 15.9303 13.496C15.8236 13.5813 15.7169 13.6667 15.6103 13.752C15.5143 13.8373 15.4183 13.9227 15.3223 14.008C15.0663 14.2533 14.8209 14.376 14.5863 14.376C14.4369 14.376 14.3089 14.3387 14.2023 14.264C14.1063 14.1893 14.0049 14.104 13.8983 14.008C13.8023 13.9013 13.7596 13.7947 13.7703 13.688C13.7809 13.5707 13.8289 13.448 13.9143 13.32C13.9889 13.2027 14.0903 13.08 14.2183 12.952C14.3463 12.8133 14.4849 12.6693 14.6343 12.52V12.536L15.0983 12.056C15.2903 11.864 15.4769 11.7307 15.6583 11.656C15.7223 11.6347 15.7756 11.5707 15.8183 11.464C15.8609 11.3467 15.9089 11.24 15.9623 11.144C16.0049 11.0693 16.0476 10.9947 16.0903 10.92C16.1436 10.8347 16.1969 10.7653 16.2503 10.712C16.3143 10.6587 16.3569 10.5573 16.3783 10.408C16.3249 10.4187 16.2769 10.424 16.2343 10.424C16.1916 10.4133 16.1543 10.408 16.1223 10.408C15.8449 10.408 15.5889 10.4133 15.3543 10.424C15.1196 10.424 14.9436 10.44 14.8263 10.472H14.8423C14.7249 10.5147 14.6129 10.5147 14.5063 10.472C14.4103 10.4293 14.3249 10.36 14.2503 10.264C14.1756 10.168 14.1116 10.056 14.0583 9.928C14.0156 9.78933 13.9943 9.65067 13.9943 9.512C13.9943 9.32 14.0369 9.16533 14.1223 9.048C14.2183 8.93067 14.3356 8.84 14.4743 8.776C14.6023 8.72267 14.7463 8.68533 14.9062 8.664C15.0769 8.64267 15.2369 8.632 15.3863 8.632H17.1783C17.3063 8.632 17.4556 8.632 17.6263 8.632C17.8076 8.632 17.9889 8.62667 18.1703 8.616C18.3516 8.60533 18.5223 8.58933 18.6823 8.568C18.8529 8.54667 18.9863 8.52 19.0823 8.488C19.2423 8.43467 19.3649 8.40267 19.4503 8.392C19.5463 8.38133 19.6263 8.38133 19.6903 8.392C19.7116 8.392 19.7276 8.39733 19.7383 8.408C19.7596 8.408 19.7863 8.408 19.8183 8.408C19.8929 8.408 19.9783 8.44533 20.0743 8.52C20.1703 8.584 20.2663 8.664 20.3623 8.76C20.4583 8.856 20.5436 8.95733 20.6183 9.064C20.7036 9.17067 20.7569 9.256 20.7783 9.32C20.8423 9.50133 20.8103 9.66133 20.6823 9.8C20.5649 9.928 20.4423 10.024 20.3143 10.088C20.1969 10.1733 20.0476 10.216 19.8663 10.216C19.6849 10.216 19.4556 10.216 19.1783 10.216H18.7943C18.7303 10.216 18.6663 10.216 18.6023 10.216C18.5383 10.216 18.4636 10.2213 18.3783 10.232C18.3463 10.4347 18.2983 10.6533 18.2343 10.888C18.3836 10.9307 18.5276 10.9787 18.6663 11.032C18.8156 11.0747 18.9489 11.1173 19.0663 11.16L19.2423 11.224C19.4876 11.3093 19.7009 11.416 19.8823 11.544C20.0743 11.6613 20.2396 11.8427 20.3783 12.088C20.4316 12.184 20.4636 12.264 20.4743 12.328C20.4849 12.392 20.4849 12.4453 20.4743 12.488C20.4636 12.5413 20.4423 12.5947 20.4103 12.648C20.3783 12.7013 20.3463 12.7653 20.3143 12.84C20.2396 12.9893 20.2023 13.0907 20.2023 13.144C20.2023 13.208 20.1863 13.2773 20.1543 13.352C20.1223 13.4267 20.0849 13.5013 20.0423 13.576L19.8823 13.928C19.6796 14.4293 19.4663 14.76 19.2423 14.92C19.0289 15.08 18.8529 15.16 18.7143 15.16C18.6503 15.16 18.5756 15.1547 18.4903 15.144C18.4049 15.1333 18.3303 15.096 18.2663 15.032C18.1916 14.9787 18.1276 14.8987 18.0743 14.792C18.0316 14.6747 18.0103 14.5147 18.0103 14.312C18.0103 14.1307 18.0423 13.9707 18.1063 13.832C18.1703 13.6933 18.2289 13.5547 18.2823 13.416L18.3943 13.208L18.3783 13.224C18.4209 13.1173 18.4529 13.0427 18.4743 13C18.5063 12.9573 18.5276 12.9253 18.5383 12.904C18.5489 12.8933 18.5543 12.888 18.5543 12.888C18.5543 12.888 18.5543 12.872 18.5543 12.84C18.5436 12.7227 18.5116 12.648 18.4583 12.616C18.4049 12.5733 18.3356 12.5413 18.2503 12.52L17.9623 12.408C17.7703 12.3227 17.5569 12.2427 17.3223 12.168C17.2796 12.2 17.2369 12.232 17.1943 12.264C17.1623 12.296 17.1303 12.328 17.0983 12.36C16.9916 12.4453 16.8956 12.5253 16.8103 12.6C16.7356 12.664 16.6876 12.712 16.6663 12.744L16.5703 12.968ZM20.8263 12.056C20.6343 11.8853 20.5543 11.704 20.5863 11.512C20.6289 11.3093 20.6983 11.1333 20.7943 10.984C20.8689 10.9093 20.9756 10.8507 21.1143 10.808C21.2636 10.7547 21.4289 10.728 21.6103 10.728C21.7063 10.728 21.8023 10.7333 21.8983 10.744C22.0049 10.744 22.1063 10.7493 22.2023 10.76C22.2769 10.7707 22.3463 10.776 22.4103 10.776C22.4743 10.776 22.5276 10.776 22.5703 10.776C22.5916 10.776 22.6183 10.776 22.6503 10.776C22.6929 10.776 22.7409 10.7707 22.7943 10.76L23.0343 10.728C23.0556 10.6427 23.0716 10.5627 23.0823 10.488C23.0929 10.4027 23.0929 10.3387 23.0823 10.296C23.0823 10.0827 23.0769 9.85867 23.0663 9.624C23.0556 9.37867 23.0396 9.13867 23.0183 8.904C23.0076 8.75467 23.0129 8.6 23.0343 8.44C23.0663 8.26933 23.1409 8.12533 23.2583 8.008C23.3649 7.912 23.4769 7.85867 23.5943 7.848C23.7223 7.82667 23.8716 7.82133 24.0423 7.832C24.0849 7.832 24.1276 7.83733 24.1703 7.848C24.2129 7.848 24.2609 7.848 24.3143 7.848C24.7089 7.848 24.9596 7.93867 25.0663 8.12C25.1729 8.30133 25.2263 8.52533 25.2263 8.792C25.2263 8.90933 25.2263 9.09067 25.2263 9.336C25.2263 9.58133 25.2156 9.832 25.1943 10.088C25.1943 10.1307 25.1889 10.1733 25.1783 10.216C25.1783 10.2587 25.1783 10.296 25.1783 10.328V10.536L25.1303 10.888C25.0983 11.1333 25.0609 11.4 25.0183 11.688C24.9863 11.9653 24.9223 12.1893 24.8263 12.36H24.8423C24.8209 12.4133 24.8156 12.472 24.8263 12.536C24.8476 12.6 24.8743 12.6587 24.9063 12.712H24.8903C24.9223 12.7867 24.9489 12.856 24.9703 12.92C24.9916 12.9733 25.0076 13.0267 25.0183 13.08C25.0183 13.176 25.0183 13.2667 25.0183 13.352C25.0289 13.4373 25.0396 13.528 25.0503 13.624V13.704C25.0609 13.9173 25.0289 14.088 24.9543 14.216C24.8796 14.344 24.7836 14.44 24.6663 14.504C24.5489 14.5787 24.4209 14.6267 24.2823 14.648C24.1543 14.6693 24.0369 14.68 23.9303 14.68C23.7063 14.68 23.5143 14.5893 23.3543 14.408C23.1943 14.216 23.0983 14.0293 23.0663 13.848C23.0556 13.752 23.0609 13.6293 23.0823 13.48C23.1036 13.32 23.1249 13.1493 23.1463 12.968L23.1943 12.648L23.1463 12.232C23.0929 12.264 23.0396 12.2907 22.9863 12.312C22.9329 12.3333 22.8583 12.344 22.7623 12.344C22.7196 12.344 22.6769 12.344 22.6343 12.344C22.5916 12.3333 22.5543 12.328 22.5223 12.328C22.4156 12.3173 22.3089 12.3173 22.2023 12.328C22.1063 12.328 21.9889 12.3547 21.8503 12.408C21.5836 12.504 21.3916 12.5253 21.2743 12.472C21.1676 12.408 21.0503 12.3013 20.9223 12.152L20.7943 12.04L20.8263 12.056ZM22.8423 18.984C23.0129 18.984 23.1783 18.9573 23.3383 18.904C23.5089 18.84 23.5943 18.7173 23.5943 18.536C23.5943 18.4827 23.5943 18.424 23.5943 18.36C23.5943 18.2853 23.5996 18.2107 23.6103 18.136V18.152C23.6209 18.0667 23.6263 18.0027 23.6263 17.96C23.6369 17.9067 23.6423 17.832 23.6423 17.736C23.6423 17.5227 23.6103 17.3253 23.5463 17.144C23.4929 16.9627 23.3703 16.872 23.1783 16.872H20.1063C19.9889 16.872 19.8609 16.872 19.7223 16.872C19.5836 16.8613 19.4396 16.856 19.2903 16.856C19.0023 16.856 18.7249 16.8667 18.4583 16.888C18.2023 16.8987 18.0316 16.9253 17.9463 16.968H17.9623C17.7703 17.064 17.6156 17.128 17.4983 17.16C17.3809 17.1813 17.2529 17.1813 17.1143 17.16C16.9969 17.1493 16.9063 17.1867 16.8423 17.272C16.7889 17.3467 16.7516 17.4427 16.7303 17.56C16.6983 17.688 16.6769 17.8213 16.6663 17.96C16.6663 18.0987 16.6663 18.216 16.6663 18.312V18.392C16.6663 18.4133 16.6609 18.44 16.6503 18.472C16.6503 18.504 16.6503 18.536 16.6503 18.568C16.6503 18.6533 16.6556 18.7333 16.6663 18.808C16.6769 18.8827 16.7409 18.9253 16.8583 18.936C16.9969 18.9467 17.1356 18.9413 17.2743 18.92C17.4236 18.8987 17.5729 18.8773 17.7223 18.856C17.8289 18.8347 17.9356 18.8187 18.0423 18.808C18.1596 18.7867 18.2983 18.776 18.4583 18.776C18.6609 18.7653 18.9063 18.7547 19.1943 18.744C19.4929 18.7333 19.7809 18.728 20.0583 18.728C20.1756 18.728 20.2983 18.728 20.4263 18.728C20.5649 18.728 20.6823 18.7333 20.7783 18.744C20.9489 18.7547 21.1303 18.776 21.3223 18.808C21.5249 18.8293 21.7169 18.8507 21.8983 18.872C22.1009 18.904 22.2823 18.9307 22.4423 18.952C22.6129 18.9733 22.7463 18.984 22.8423 18.984ZM39.2888 8.792C39.2888 8.90933 39.2888 9.09067 39.2888 9.336C39.2888 9.58133 39.2781 9.832 39.2568 10.088C39.2568 10.1307 39.2514 10.1733 39.2408 10.216C39.2408 10.2587 39.2408 10.296 39.2408 10.328V10.536L39.1928 10.888C39.1608 11.1333 39.1234 11.4 39.0808 11.688C39.0488 11.9653 38.9848 12.1893 38.8888 12.36H38.9048C38.8834 12.4133 38.8781 12.472 38.8888 12.536C38.9101 12.6 38.9368 12.6587 38.9688 12.712H38.9528C38.9848 12.7867 39.0114 12.856 39.0328 12.92C39.0541 12.9733 39.0701 13.0267 39.0808 13.08C39.0808 13.176 39.0808 13.2667 39.0808 13.352C39.0914 13.4373 39.1021 13.528 39.1128 13.624V13.704C39.1234 13.9173 39.0914 14.088 39.0168 14.216C38.9421 14.344 38.8461 14.44 38.7288 14.504C38.6114 14.5787 38.4834 14.6267 38.3448 14.648C38.2168 14.6693 38.0994 14.68 37.9928 14.68C37.7688 14.68 37.5768 14.5893 37.4168 14.408C37.2568 14.216 37.1608 14.0293 37.1288 13.848C37.1181 13.752 37.1234 13.6293 37.1448 13.48C37.1661 13.32 37.1874 13.1493 37.2088 12.968L37.2568 12.648C37.2354 12.4773 37.2088 12.3173 37.1768 12.168C37.1554 12.0187 37.1288 11.8853 37.0968 11.768L37.0488 11.592C37.0274 11.464 37.0221 11.32 37.0328 11.16C37.0541 11 37.0754 10.856 37.0968 10.728C37.1181 10.6427 37.1341 10.5627 37.1448 10.488C37.1554 10.4027 37.1554 10.3387 37.1448 10.296C37.1448 10.0827 37.1394 9.85867 37.1288 9.624C37.1181 9.37867 37.1021 9.13867 37.0808 8.904C37.0701 8.75467 37.0754 8.6 37.0968 8.44C37.1288 8.26933 37.2034 8.12533 37.3208 8.008C37.4274 7.912 37.5394 7.85867 37.6568 7.848C37.7848 7.82667 37.9341 7.82133 38.1048 7.832C38.1474 7.832 38.1901 7.83733 38.2328 7.848C38.2754 7.848 38.3234 7.848 38.3768 7.848C38.7714 7.848 39.0221 7.93867 39.1288 8.12C39.2354 8.30133 39.2888 8.52533 39.2888 8.792ZM39.4168 15.928C39.4808 16.088 39.5288 16.2267 39.5608 16.344C39.6034 16.4613 39.6354 16.5733 39.6568 16.68C39.6674 16.7867 39.6728 16.8933 39.6728 17C39.6728 17.096 39.6674 17.208 39.6568 17.336V17.432C39.6568 17.464 39.6514 17.5013 39.6408 17.544C39.6408 17.576 39.6408 17.6133 39.6408 17.656C39.6301 17.8373 39.6194 18.0453 39.6088 18.28C39.5981 18.504 39.5768 18.7333 39.5448 18.968C39.5128 19.2027 39.4701 19.4213 39.4168 19.624C39.3634 19.8267 39.2941 19.9973 39.2088 20.136C39.1021 20.296 38.9154 20.4187 38.6488 20.504C38.3928 20.5893 38.1101 20.6533 37.8008 20.696C37.4914 20.7387 37.1821 20.76 36.8728 20.76C36.5741 20.7707 36.3288 20.776 36.1368 20.776C35.9234 20.776 35.7101 20.7707 35.4968 20.76C35.2834 20.7493 35.0808 20.7387 34.8888 20.728C34.7394 20.7173 34.6008 20.7067 34.4728 20.696C34.3554 20.696 34.2488 20.696 34.1528 20.696C34.0888 20.696 34.0141 20.696 33.9288 20.696C33.8541 20.7067 33.7741 20.7173 33.6888 20.728C33.4648 20.76 33.2301 20.776 32.9848 20.776C32.8568 20.776 32.7448 20.7707 32.6488 20.76C32.5528 20.7493 32.4621 20.7227 32.3768 20.68C32.3234 20.6587 32.2488 20.6427 32.1528 20.632C32.0674 20.632 31.9661 20.632 31.8488 20.632C31.6994 20.632 31.5394 20.632 31.3688 20.632C31.1981 20.6427 31.0274 20.6533 30.8568 20.664C30.7288 20.6747 30.6008 20.68 30.4728 20.68C30.3448 20.6907 30.2328 20.696 30.1368 20.696C29.8274 20.696 29.6248 20.6267 29.5288 20.488C29.4328 20.3493 29.3581 20.1947 29.3048 20.024C29.2834 19.9813 29.2728 19.96 29.2728 19.96C29.2408 19.9067 29.2141 19.7947 29.1928 19.624C29.1821 19.464 29.1768 19.2827 29.1768 19.08C29.1768 18.888 29.1768 18.7067 29.1768 18.536C29.1874 18.3653 29.1981 18.1787 29.2088 17.976C29.2194 17.8053 29.2248 17.656 29.2248 17.528C29.2354 17.3893 29.2408 17.2773 29.2408 17.192C29.2408 17.0213 29.2461 16.8613 29.2568 16.712C29.2674 16.5627 29.3048 16.4187 29.3688 16.28C29.4221 16.1413 29.5021 16.0133 29.6088 15.896C29.7261 15.768 29.8861 15.6453 30.0888 15.528C30.3128 15.4213 30.5794 15.368 30.8888 15.368C30.9634 15.368 31.0381 15.368 31.1128 15.368C31.1981 15.368 31.2781 15.3733 31.3528 15.384C31.4488 15.3947 31.5448 15.4053 31.6408 15.416C31.7474 15.416 31.8541 15.416 31.9608 15.416C32.1208 15.416 32.2701 15.4213 32.4088 15.432C32.5581 15.4427 32.7074 15.4587 32.8568 15.48C33.2514 15.5333 33.6781 15.5493 34.1368 15.528C34.2434 15.5173 34.3394 15.5067 34.4248 15.496C34.5208 15.4853 34.5954 15.4747 34.6488 15.464C34.8088 15.432 34.9954 15.416 35.2088 15.416C35.3048 15.416 35.4114 15.4213 35.5288 15.432C35.6461 15.4427 35.7848 15.464 35.9448 15.496C36.0834 15.528 36.2221 15.544 36.3608 15.544C36.5741 15.544 36.7714 15.5173 36.9528 15.464C37.1341 15.4107 37.2994 15.3573 37.4488 15.304C37.4914 15.2933 37.5341 15.2827 37.5768 15.272C37.6301 15.2507 37.6834 15.2293 37.7368 15.208C37.7901 15.1867 37.8434 15.1707 37.8968 15.16H37.8808C38.2541 15.0747 38.5741 15.1173 38.8408 15.288C39.1181 15.4587 39.3101 15.672 39.4168 15.928ZM36.9048 18.984C37.0754 18.984 37.2408 18.9573 37.4008 18.904C37.5714 18.84 37.6568 18.7173 37.6568 18.536C37.6568 18.4827 37.6568 18.424 37.6568 18.36C37.6568 18.2853 37.6621 18.2107 37.6728 18.136V18.152C37.6834 18.0667 37.6888 18.0027 37.6888 17.96C37.6994 17.9067 37.7048 17.832 37.7048 17.736C37.7048 17.5227 37.6728 17.3253 37.6088 17.144C37.5554 16.9627 37.4328 16.872 37.2408 16.872H34.1688C34.0514 16.872 33.9234 16.872 33.7848 16.872C33.6461 16.8613 33.5021 16.856 33.3528 16.856C33.0648 16.856 32.7874 16.8667 32.5208 16.888C32.2648 16.8987 32.0941 16.9253 32.0088 16.968H32.0248C31.8328 17.064 31.6781 17.128 31.5608 17.16C31.4434 17.1813 31.3154 17.1813 31.1768 17.16C31.0594 17.1493 30.9688 17.1867 30.9048 17.272C30.8514 17.3467 30.8141 17.4427 30.7928 17.56C30.7608 17.688 30.7394 17.8213 30.7288 17.96C30.7288 18.0987 30.7288 18.216 30.7288 18.312V18.392C30.7288 18.4133 30.7234 18.44 30.7128 18.472C30.7128 18.504 30.7128 18.536 30.7128 18.568C30.7128 18.6533 30.7181 18.7333 30.7288 18.808C30.7394 18.8827 30.8034 18.9253 30.9208 18.936C31.0594 18.9467 31.1981 18.9413 31.3368 18.92C31.4861 18.8987 31.6354 18.8773 31.7848 18.856C31.8914 18.8347 31.9981 18.8187 32.1048 18.808C32.2221 18.7867 32.3608 18.776 32.5208 18.776C32.7234 18.7653 32.9688 18.7547 33.2568 18.744C33.5554 18.7333 33.8434 18.728 34.1208 18.728C34.2381 18.728 34.3608 18.728 34.4888 18.728C34.6274 18.728 34.7448 18.7333 34.8408 18.744C35.0114 18.7547 35.1928 18.776 35.3848 18.808C35.5874 18.8293 35.7794 18.8507 35.9608 18.872C36.1634 18.904 36.3448 18.9307 36.5048 18.952C36.6754 18.9733 36.8088 18.984 36.9048 18.984ZM32.5208 9.32C32.5208 9.46933 32.4994 9.64 32.4568 9.832C32.4248 10.024 32.3821 10.232 32.3288 10.456C32.4674 10.4987 32.5901 10.5413 32.6968 10.584C32.8141 10.6267 32.9261 10.6587 33.0328 10.68L33.0168 10.664C33.0488 10.6747 33.0648 10.6853 33.0648 10.696C33.0648 10.696 33.0808 10.7013 33.1128 10.712C33.3901 10.8187 33.6408 10.9573 33.8648 11.128C34.0994 11.288 34.2914 11.48 34.4408 11.704C34.5368 11.8853 34.5634 12.0613 34.5208 12.232C34.4781 12.392 34.4141 12.5467 34.3288 12.696H34.3448C34.2701 12.8453 34.2328 12.9413 34.2328 12.984C34.2328 13.0693 34.2114 13.1493 34.1688 13.224C34.1368 13.2987 34.0888 13.3787 34.0248 13.464C33.9928 13.528 33.9661 13.576 33.9448 13.608C33.9234 13.64 33.8861 13.72 33.8328 13.848C33.7368 14.0827 33.6354 14.2693 33.5288 14.408C33.4328 14.5467 33.3368 14.6533 33.2408 14.728C33.1448 14.8027 33.0541 14.856 32.9688 14.888C32.8834 14.9093 32.8088 14.92 32.7448 14.92C32.4888 14.92 32.3074 14.8773 32.2008 14.792C32.0941 14.696 32.0408 14.456 32.0408 14.072C32.0408 13.848 32.0781 13.656 32.1528 13.496C32.2274 13.3253 32.3128 13.1493 32.4088 12.968V12.984L32.5368 12.728C32.5474 12.696 32.5528 12.6373 32.5528 12.552V12.488C32.5421 12.3707 32.4888 12.2747 32.3928 12.2C32.2968 12.1147 32.2061 12.0507 32.1208 12.008C32.0888 12.008 32.0461 11.9973 31.9928 11.976C31.9394 11.944 31.9021 11.9227 31.8808 11.912L31.4808 11.784L31.1128 12.136C31.0274 12.2213 30.9368 12.3067 30.8408 12.392C30.7554 12.4667 30.6968 12.5253 30.6648 12.568C30.6434 12.6107 30.6328 12.6373 30.6328 12.648C30.5901 12.712 30.5528 12.776 30.5208 12.84C30.4888 12.904 30.4568 12.952 30.4248 12.984C30.3501 13.0587 30.2594 13.1333 30.1528 13.208C30.0461 13.272 29.9394 13.3413 29.8328 13.416C29.7154 13.4907 29.5981 13.5707 29.4808 13.656C29.3741 13.7307 29.2674 13.8267 29.1608 13.944C28.8834 14.168 28.6381 14.28 28.4248 14.28C28.2648 14.28 28.1368 14.248 28.0408 14.184C27.9448 14.1093 27.8434 14.024 27.7368 13.928C27.6301 13.8213 27.5821 13.7147 27.5928 13.608C27.6034 13.5013 27.6461 13.3893 27.7208 13.272C27.7848 13.1653 27.8701 13.0587 27.9768 12.952C28.0941 12.8453 28.2061 12.744 28.3128 12.648C28.3981 12.5733 28.4888 12.4827 28.5848 12.376V12.392C28.7021 12.2213 28.8301 12.0773 28.9688 11.96C29.1181 11.8427 29.2621 11.7253 29.4008 11.608L29.5768 11.464C29.6621 11.4 29.7368 11.32 29.8008 11.224C29.8648 11.1173 29.9234 11.0107 29.9768 10.904C30.0088 10.8613 30.0248 10.8347 30.0248 10.824C30.0248 10.8133 30.0301 10.7973 30.0408 10.776C30.0514 10.7547 30.0728 10.7227 30.1048 10.68C30.1474 10.6267 30.2168 10.552 30.3128 10.456C30.3768 10.392 30.4194 10.2587 30.4408 10.056C30.4728 9.84267 30.4888 9.65067 30.4888 9.48C30.4781 9.36267 30.4674 9.26667 30.4568 9.192C30.4568 9.11733 30.4674 9.064 30.4888 9.032C30.4674 8.79733 30.5314 8.648 30.6808 8.584C30.8301 8.50933 31.0488 8.472 31.3368 8.472C31.6034 8.472 31.8221 8.49333 31.9928 8.536C32.1741 8.568 32.3181 8.69067 32.4248 8.904H32.4088C32.4301 8.95733 32.4514 9.02133 32.4728 9.096C32.5048 9.16 32.5208 9.23467 32.5208 9.32ZM46.4233 13.368C46.3166 13.2827 46.2419 13.1973 46.1993 13.112C46.1673 13.016 46.1566 12.92 46.1673 12.824C46.1779 12.7387 46.1993 12.6533 46.2313 12.568C46.2739 12.4827 46.3219 12.4027 46.3753 12.328C46.4926 12.1467 46.7326 12.056 47.0953 12.056C47.1913 12.056 47.2766 12.0613 47.3513 12.072C47.4366 12.072 47.5219 12.0773 47.6073 12.088C47.6819 12.0987 47.7459 12.104 47.7993 12.104C47.8633 12.104 47.9166 12.104 47.9593 12.104C47.9806 12.104 48.0339 12.104 48.1193 12.104C48.2153 12.0933 48.3113 12.0827 48.4073 12.072C48.4499 12.072 48.4873 12.072 48.5193 12.072C48.5619 12.0613 48.5993 12.056 48.6313 12.056C48.6633 12.056 48.7059 12.056 48.7593 12.056C48.8126 12.0453 48.8659 12.04 48.9193 12.04C48.9193 11.9867 48.9193 11.9333 48.9193 11.88C48.9193 11.816 48.9139 11.7467 48.9033 11.672C48.8819 11.4373 48.8606 11.1813 48.8393 10.904C48.8179 10.6267 48.8019 10.36 48.7913 10.104C48.7699 9.85867 48.7539 9.63467 48.7433 9.432C48.7326 9.22933 48.7273 9.08533 48.7273 9C48.7273 8.76533 48.8393 8.552 49.0633 8.36C49.2979 8.168 49.5753 8.072 49.8953 8.072C50.1299 8.072 50.3113 8.152 50.4392 8.312C50.5673 8.46133 50.6633 8.65333 50.7273 8.888C50.7806 9.13333 50.8126 9.40533 50.8233 9.704C50.8339 10.0027 50.8393 10.2907 50.8393 10.568C50.8393 11.08 50.8073 11.5387 50.7433 11.944C50.6793 12.3387 50.5886 12.7013 50.4713 13.032C50.4179 13.1813 50.4179 13.384 50.4713 13.64C50.5246 13.8853 50.5833 14.1307 50.6473 14.376C50.6793 14.5253 50.7113 14.6693 50.7433 14.808C50.7753 14.936 50.7913 15.0693 50.7913 15.208C50.7913 15.304 50.7913 15.4213 50.7913 15.56C50.8019 15.688 50.8126 15.8373 50.8233 16.008C50.8339 16.3067 50.8446 16.6533 50.8553 17.048C50.8659 17.432 50.8713 17.8747 50.8713 18.376C50.8713 18.7813 50.8393 19.112 50.7753 19.368C50.7113 19.624 50.6259 19.8267 50.5193 19.976C50.4126 20.1147 50.2846 20.2053 50.1353 20.248C49.9966 20.3013 49.8473 20.3227 49.6873 20.312C49.5273 20.3013 49.3993 20.248 49.3033 20.152C49.2073 20.056 49.1326 19.944 49.0793 19.816C49.0259 19.6773 48.9886 19.5333 48.9673 19.384C48.9566 19.2453 48.9459 19.128 48.9353 19.032C48.9353 19.0107 48.9299 19 48.9193 19C48.9193 18.9893 48.9193 18.9733 48.9193 18.952C48.9193 18.8347 48.9193 18.6587 48.9193 18.424C48.9299 18.1893 48.9406 17.992 48.9513 17.832C48.9726 17.5547 48.9886 17.2667 48.9993 16.968C49.0099 16.6587 49.0099 16.3973 48.9993 16.184C48.9993 16.0987 48.9939 16.0027 48.9833 15.896C48.9833 15.7893 48.9833 15.6773 48.9833 15.56C48.9726 15.1867 48.9566 14.8187 48.9353 14.456C48.9246 14.0933 48.8926 13.8213 48.8393 13.64C48.8179 13.576 48.8073 13.528 48.8073 13.496L48.7433 13.528C48.6899 13.5813 48.6259 13.6187 48.5513 13.64C48.4873 13.6613 48.3966 13.672 48.2793 13.672C48.2259 13.672 48.1779 13.672 48.1353 13.672C48.0926 13.6613 48.0553 13.656 48.0233 13.656C47.9699 13.6453 47.9166 13.6453 47.8633 13.656C47.8099 13.656 47.7086 13.6827 47.5593 13.736C47.2606 13.832 47.0473 13.8533 46.9193 13.8C46.7913 13.736 46.6633 13.6347 46.5353 13.496L46.4073 13.368H46.4233ZM52.9033 7.848C53.0953 7.848 53.2446 7.896 53.3513 7.992C53.4686 8.07733 53.5593 8.18933 53.6233 8.328C53.6873 8.47733 53.7246 8.63733 53.7353 8.808C53.7566 8.97867 53.7673 9.14933 53.7673 9.32C53.7673 9.45867 53.7673 9.66667 53.7673 9.944C53.7673 10.2107 53.7673 10.4933 53.7673 10.792C53.7566 11.1013 53.7459 11.4 53.7353 11.688C53.7353 11.976 53.7299 12.2053 53.7193 12.376C53.7086 12.5467 53.6873 12.76 53.6553 13.016C53.6339 13.2613 53.6073 13.5173 53.5753 13.784C53.5433 14.0613 53.5059 14.3227 53.4633 14.568C53.4206 14.8133 53.3833 15.0107 53.3513 15.16C53.3299 15.2773 53.3299 15.416 53.3513 15.576C53.3726 15.7253 53.4046 15.8693 53.4473 16.008C53.4793 16.1253 53.5113 16.248 53.5433 16.376C53.5859 16.504 53.6073 16.6213 53.6073 16.728C53.6073 16.8027 53.6019 16.8827 53.5913 16.968C53.5913 17.0533 53.5913 17.1493 53.5913 17.256C53.5913 17.3627 53.5859 17.48 53.5753 17.608C53.5753 17.7253 53.5753 17.8533 53.5753 17.992C53.5753 18.1733 53.5753 18.3707 53.5753 18.584C53.5859 18.7973 53.5966 19.016 53.6073 19.24C53.6073 19.5067 53.5699 19.7413 53.4953 19.944C53.4206 20.1467 53.3299 20.3173 53.2233 20.456C53.1166 20.584 52.9993 20.68 52.8713 20.744C52.7539 20.8187 52.6473 20.856 52.5513 20.856C52.4339 20.856 52.3273 20.808 52.2313 20.712C52.1353 20.616 52.0499 20.4987 51.9753 20.36C51.9006 20.2107 51.8366 20.0507 51.7833 19.88C51.7406 19.7093 51.7139 19.5547 51.7033 19.416C51.6926 19.288 51.6926 19.112 51.7033 18.888C51.7246 18.664 51.7459 18.4293 51.7673 18.184C51.7886 17.9387 51.8099 17.688 51.8313 17.432C51.8526 17.176 51.8633 16.9413 51.8633 16.728C51.8633 16.5147 51.8526 16.28 51.8313 16.024C51.8206 15.768 51.8046 15.5173 51.7833 15.272C51.7619 15.0267 51.7353 14.792 51.7033 14.568C51.6819 14.344 51.6606 14.1573 51.6393 14.008C51.6179 13.8053 51.6126 13.5973 51.6233 13.384C51.6446 13.1707 51.6659 12.9573 51.6873 12.744C51.7086 12.616 51.7246 12.4933 51.7353 12.376C51.7459 12.248 51.7459 12.1413 51.7353 12.056C51.7246 11.96 51.7139 11.7787 51.7033 11.512C51.7033 11.2453 51.6979 10.9627 51.6873 10.664C51.6766 10.44 51.6659 10.2053 51.6553 9.96C51.6553 9.71467 51.6553 9.544 51.6553 9.448C51.6446 9.23467 51.6553 8.99467 51.6873 8.728C51.7193 8.45067 51.7833 8.23733 51.8793 8.088C51.9753 7.94933 52.0819 7.86933 52.1993 7.848C52.3273 7.82667 52.4819 7.82133 52.6633 7.832H52.6473C52.6793 7.832 52.7166 7.83733 52.7593 7.848C52.8019 7.848 52.8499 7.848 52.9033 7.848ZM47.1113 15.656C47.2393 15.656 47.3673 15.6773 47.4953 15.72C47.6233 15.752 47.7406 15.8107 47.8473 15.896C47.9433 15.992 48.0179 16.1147 48.0713 16.264C48.1246 16.4133 48.1459 16.6 48.1353 16.824C48.1139 17.048 48.0606 17.224 47.9753 17.352C47.8899 17.48 47.7886 17.5813 47.6713 17.656C47.5539 17.7307 47.4366 17.7787 47.3193 17.8C47.2019 17.8107 47.1113 17.816 47.0473 17.816C46.9406 17.816 46.8446 17.8107 46.7593 17.8C46.6739 17.7787 46.5886 17.7573 46.5033 17.736C46.3859 17.704 46.2686 17.6773 46.1513 17.656C46.0339 17.624 45.9219 17.6187 45.8153 17.64C45.7513 17.6507 45.6979 17.6667 45.6553 17.688C45.6126 17.7093 45.5379 17.7307 45.4313 17.752C45.3033 17.784 45.1699 17.816 45.0312 17.848C44.8926 17.8693 44.7326 17.8853 44.5513 17.896C43.9539 17.9067 43.4633 17.784 43.0793 17.528C42.6953 17.272 42.3859 16.9733 42.1513 16.632C42.0339 16.4507 41.9539 16.2587 41.9113 16.056C41.8793 15.8533 41.8633 15.6347 41.8633 15.4C41.8633 15.144 41.8793 14.8933 41.9113 14.648C41.9539 14.4027 41.9966 14.1893 42.0393 14.008V14.024L42.0872 13.832C42.1726 13.5227 42.2473 13.2133 42.3113 12.904C42.3859 12.5947 42.4233 12.2853 42.4233 11.976C42.4233 11.7627 42.4286 11.528 42.4393 11.272C42.4606 11.016 42.4819 10.7653 42.5033 10.52C42.5353 10.136 42.5513 9.83733 42.5513 9.624C42.5513 9.464 42.5886 9.32533 42.6633 9.208C42.7379 9.09067 42.8286 8.98933 42.9353 8.904C43.0313 8.82933 43.1326 8.776 43.2393 8.744C43.3566 8.70133 43.4473 8.69067 43.5113 8.712H43.4953C43.6019 8.744 43.6873 8.82933 43.7513 8.968C43.8259 9.10667 43.8793 9.272 43.9113 9.464C43.9433 9.656 43.9646 9.864 43.9753 10.088C43.9966 10.312 44.0126 10.5307 44.0233 10.744C44.0233 11.0853 44.0393 11.352 44.0713 11.544C44.0926 11.6507 44.1033 11.7733 44.1033 11.912C44.1033 12.0507 44.1033 12.2053 44.1033 12.376C44.1033 12.568 44.1033 12.776 44.1033 13C44.1033 13.224 44.0979 13.4533 44.0873 13.688C44.0766 13.9013 44.0713 14.1147 44.0713 14.328C44.0713 14.5413 44.0713 14.744 44.0713 14.936C44.0713 15.384 44.1779 15.6667 44.3913 15.784C44.6046 15.9013 44.8819 15.9387 45.2233 15.896L46.3273 15.736L47.1113 15.656Z" fill="black"/>
</svg>
